<svg width="755" height="755" viewBox="0 0 755 755" fill="none" xmlns="http://www.w3.org/2000/svg">
<path fill-rule="evenodd" clip-rule="evenodd" d="M396.454 234.408C505.204 382.157 673.218 275.47 657.073 410.97C644.267 518.495 586.107 513.242 474.367 520.86C410.62 525.207 91.7604 730.732 131.848 406.354C147.738 277.872 307.619 113.703 396.454 234.408Z" fill="#C1272C"/>
<path fill-rule="evenodd" clip-rule="evenodd" d="M470.928 282.903C438.789 229.287 425.387 228.782 432.983 210.461C444.642 182.347 468.848 230.789 506.27 226.297C546.961 221.412 607.574 223.55 605.975 273.4C605.163 298.729 497.18 326.704 470.928 282.903ZM151.59 283.887C151.543 283.138 151.483 282.379 151.412 281.615C150.911 275.88 148.624 272.368 145.504 270.664C141.12 268.267 134.628 269.454 128.065 274.141C119.238 280.44 110.078 292.997 106.278 309.798C103.908 320.184 103.574 326.667 104.563 330.103C105.504 333.375 107.469 334.616 109.983 334.528C111.71 334.467 113.914 333.569 116.391 331.837C119.369 329.756 122.919 326.436 126.754 322.31C133.258 315.336 140.679 306.004 147.802 296.577C147.468 308.353 145.442 318.331 142.394 327.008C132.853 354.12 113.603 368.708 105.42 385.625C96.2711 404.483 91.2941 425.09 90.8279 446.044C90.3394 466.736 94.1631 487.559 102.108 507.281C102.411 508.019 102.995 508.606 103.73 508.914C104.466 509.222 105.294 509.225 106.032 508.924C106.77 508.622 107.359 508.04 107.668 507.305C107.978 506.57 107.983 505.743 107.683 505.004C99.833 486.091 95.9379 466.076 96.2237 446.146C96.4828 425.92 101.103 405.988 109.768 387.711C117.88 370.629 137.022 355.755 146.444 328.419C150.03 318.012 152.245 305.826 151.936 291.062C161.524 278.138 170.077 265.881 174.378 260.234C182.085 250.136 190.995 240.937 200.691 232.612C210.399 224.27 220.881 216.807 231.698 210.186C237.534 206.614 245.384 200.894 253.401 196.977C258.499 194.492 263.645 192.713 268.338 192.981C269.134 193.022 269.915 192.745 270.507 192.211C271.099 191.677 271.455 190.929 271.496 190.133C271.537 189.336 271.26 188.556 270.726 187.964C270.192 187.372 269.444 187.016 268.648 186.975C263.037 186.716 256.867 188.721 250.816 191.755C242.668 195.845 234.699 201.755 228.779 205.469C217.784 212.347 207.147 220.088 197.308 228.714C187.433 237.363 178.369 246.898 170.555 257.346C166.79 262.362 159.738 272.601 151.59 283.887ZM147.79 289.127C147.719 286.806 147.58 284.417 147.373 281.96C147.04 277.973 145.742 275.382 143.574 274.193C140.226 272.357 135.39 273.814 130.375 277.387C122.144 283.25 113.723 295.027 110.197 310.684C108.1 320.049 107.6 325.871 108.505 328.964C108.767 329.879 109.125 330.435 109.827 330.407C110.982 330.362 112.364 329.6 114.008 328.441C116.795 326.476 120.082 323.335 123.668 319.445C131.126 311.338 139.798 300.048 147.79 289.127ZM663.117 422.582C663.427 443.328 660.985 460.615 653.815 475.46C649.991 483.372 644.857 490.601 638.127 497.247C632.183 503.106 624.988 508.474 616.459 513.576C612.028 516.197 607.502 518.66 602.939 521.027C596.042 524.598 589.038 527.956 582.07 531.402C578.127 533.344 573.589 535.245 569.717 537.844C566.81 539.799 564.274 542.158 562.499 545.118C562.115 545.807 562.017 546.619 562.226 547.38C562.436 548.141 562.936 548.789 563.619 549.184C564.302 549.579 565.113 549.69 565.877 549.493C566.641 549.296 567.297 548.806 567.703 548.13C568.966 545.865 570.837 544.069 572.969 542.533C576.554 539.956 580.806 538.059 584.475 536.109C591.372 532.454 598.293 528.864 605.118 525.105C609.693 522.583 614.231 519.992 618.674 517.23C627.441 511.855 634.767 506.141 640.913 500.084C648.001 493.108 653.516 485.624 657.709 477.396C665.523 462.08 668.811 444.217 669.132 422.582C669.132 421.784 668.815 421.019 668.251 420.455C667.687 419.891 666.922 419.574 666.124 419.574C665.327 419.574 664.562 419.891 663.998 420.455C663.434 421.019 663.117 421.784 663.117 422.582L663.117 422.582Z" fill="#FFF7ED"/>
<path d="M84.5535 583.804C85.841 580.951 86.6109 578.039 88.1303 575.635C89.843 573.292 92.7232 571.484 95.7026 572.544C109.04 576.864 122.453 576.766 129.671 565.747C129.622 565.915 129.602 566.089 129.612 566.264C129.615 566.425 129.809 566.487 129.97 566.485C130.135 566.806 130.751 567.056 131.075 567.213C132.761 567.967 134.664 568.04 136.5 567.825C138.817 567.442 140.7 565.903 142.718 564.783C144.021 564.002 145.395 563.348 146.822 562.83C146.854 563.58 146.776 564.331 146.591 565.058C146.553 565.046 146.513 565.044 146.474 565.05C146.435 565.056 146.398 565.07 146.366 565.093C144.748 567.305 141.371 567.991 138.553 569.605C136.148 570.763 134.171 572.592 132.488 574.677C130.894 576.537 129.593 578.63 128.629 580.882C126.367 585.779 125.756 591.203 125.498 596.527C125.479 597.591 124.935 603.305 126.73 602.38C128.448 600.522 129.355 598.189 131.243 596.973C136.71 593.102 143.538 592.503 148.381 587.736C153.254 582.711 156.781 573.027 150.749 567.619C149.857 566.853 148.834 566.253 147.729 565.85C147.535 565.788 147.405 565.693 147.21 565.631C147.485 564.621 147.603 563.576 147.56 562.531C148.706 562.176 149.9 561.998 151.1 562.004C152.873 561.983 154.715 562.25 156.451 561.842C159.442 561.194 161.797 558.682 162.632 555.738C162.879 554.799 163.252 553.634 163.238 552.506C164.735 553.681 166.361 554.79 168.206 555.38C170.859 556.121 174.177 555.791 175.204 552.747C175.825 550.805 175.349 548.779 175.164 546.847C174.987 545.559 175.384 543.652 175.622 542.069C175.752 542.789 176.024 543.477 176.421 544.091C176.914 544.891 177.472 545.658 178.029 546.425C177.757 550.62 177.717 555.264 180.019 558.944C174.301 558.079 173.026 567.252 165.039 562.77C164.002 562.331 161.203 560.205 160.84 562.176C160.751 562.79 161.015 563.302 161.215 563.848C161.747 565.199 162.48 566.462 163.389 567.595C166.137 570.882 170.875 573.308 175.149 572.16C176.659 571.786 178.064 570.576 178.991 569.856C180.237 568.97 181.232 568.539 182.613 568.071C185.246 567.2 188.08 566.876 190.416 565.428C190.954 565.075 191.447 564.658 191.884 564.185C192.265 566.341 193.741 568.419 196.924 570.347C201.24 572.584 205.511 573.79 208.972 577.359C209.559 577.869 210.74 579.53 211.524 580.424C212.506 581.541 213.208 581.016 213.418 579.691C214.903 574.546 215.157 568.901 212.776 563.964C211.681 561.365 209.903 558.388 209.198 556.075C208.753 553.952 208.797 552.307 208.931 550.048C209.215 546.795 210.188 543.64 211.786 540.792C212.352 539.689 213.211 538.678 213.908 537.67C215.489 540.424 215.79 544 215.212 546.812C214.294 550.854 212.024 555.106 213.751 559.244C214.452 561.235 215.796 563.057 217.931 563.579C219.096 563.952 220.386 563.936 221.52 564.406C222.17 564.638 222.79 564.944 223.37 565.318L223.661 565.412C223.717 565.396 223.769 565.369 223.814 565.332C223.859 565.295 223.896 565.249 223.923 565.198C223.949 565.146 223.965 565.089 223.969 565.031C223.972 564.973 223.964 564.915 223.944 564.86C224.454 564.273 224.818 562.463 225.039 562.106C227.629 555.013 231.575 550.709 228.894 542.357C228.566 541.294 228.165 540.254 227.696 539.244C228.436 539.106 229.143 538.905 229.883 538.766C233.901 537.75 238.16 537.989 241.604 540.107C242.74 540.738 244.267 541.655 244.952 542.356C245.376 542.706 245.609 543.315 246.159 543.438C247.221 543.296 246.333 541.888 246.261 541.276C245.319 538.031 244.829 534.877 244.984 531.715C245.013 526.104 248.08 521.036 249.625 515.536C250.727 510.75 249.762 505.57 247.516 501.213C244.381 495.286 237.404 491.662 230.855 494.063L229.83 494.592C227.439 491.525 223.867 489.473 220.208 488.195C217.875 487.289 215.42 486.931 213.057 486.121C208.846 484.56 203.916 482.233 199.951 484.926C200.013 484.732 200.108 484.602 200.139 484.505C202.669 480.282 202.799 475.186 203.257 470.408C203.348 468.083 203.743 465.781 204.431 463.558C204.436 463.567 204.442 463.574 204.449 463.58C204.456 463.587 204.464 463.591 204.473 463.594C204.482 463.597 204.492 463.598 204.501 463.597C204.511 463.596 204.52 463.594 204.528 463.589C206.041 463.377 207.471 464.263 209.215 464.5C210.791 464.653 212.376 464.676 213.956 464.571C214.321 465.437 214.686 466.303 215.244 467.071C216.555 468.828 218.344 470.096 220.354 471.007C224.86 472.984 226.909 469.089 228.868 465.809C229.596 464.704 230.845 463.979 232.09 462.932C233.337 461.898 234.363 460.625 235.108 459.187C236.306 456.948 236.723 454.137 235.727 451.732C234.998 450.16 233.314 449.568 231.761 449.071C229.366 448.359 226.944 448.066 224.611 447.159C222.927 446.566 221.401 445.65 219.621 445.188C218.262 444.754 216.78 444.867 215.395 445.013C213.914 445.339 212.404 445.52 210.887 445.552C211.746 441.865 212.439 437.859 214.633 435.349C216.571 432.971 219.461 431.969 222.394 431.837C222.83 431.786 223.272 431.835 223.685 431.983C224.938 434.257 226.514 436.527 229.102 437.302C230.949 438.053 233.266 437.67 234.669 436.299C234.9 436.012 235.091 435.695 235.238 435.357C236.347 439.084 238.693 441.119 242.752 440.812C243.881 440.798 244.974 440.559 246.101 440.384C246.551 440.315 247.066 440.211 247.417 439.95C248.184 439.393 248.267 438.134 247.454 437.66C246.287 437.126 244.875 437.692 243.684 437.9C242.366 438.174 241.533 438.603 240.528 438.228C238.973 437.57 237.597 435.845 236.228 434.604C238.318 434.094 240.174 432.976 241.378 431.22C242.714 429.721 244.221 429.025 246.248 428.549C248.146 428.139 250.202 427.566 251.505 426.003C253.344 423.433 253.359 419.37 250.914 417.142C247.263 413.833 242.934 415.821 243.058 420.785C243.045 422.333 243.263 424.329 242.921 425.398C242.422 426.79 241.21 427.901 239.641 428.791C238.326 429.387 236.979 430.081 236.091 431.188C236.079 427.545 233.543 425.77 230.481 423.292C228.025 421.317 225.201 419.85 222.174 418.975C220.944 418.635 219.552 418.136 218.268 418.635C216.889 419.265 217.2 420.97 217.954 421.96C219.533 424.553 222.648 426.192 222.81 428.866C222.977 429.348 222.728 430.125 222.8 430.737C219.671 430.646 216.397 431.846 214.298 434.225C211.4 437.259 210.903 441.489 209.983 445.37C207.47 445.53 204.891 445.561 202.38 445.881C202.283 445.851 202.218 445.884 202.123 446.014C202.043 445.974 201.952 445.964 201.865 445.985C201.787 446.013 201.719 446.062 201.665 446.125C201.612 446.189 201.576 446.265 201.561 446.346C201.546 446.427 201.552 446.511 201.579 446.589C201.605 446.668 201.652 446.738 201.714 446.793C204.115 447.989 206.428 449.96 207.871 451.974C206.215 456.315 204.17 460.531 203.096 465.058C202.026 469.908 202.446 475.289 201.145 479.689C200.592 481.921 199.579 483.416 198.636 485.524C198.731 485.394 198.605 485.621 198.479 485.848C198.203 486.126 197.987 486.458 197.846 486.823L197.749 486.792C192.796 485.208 187.844 488.976 183.637 490.414C182.257 490.882 180.744 491.093 179.617 491.269C178.393 491.413 174.944 491.486 177.384 493.23C179.854 494.877 182.579 496.231 184.988 498.071C186.357 499.312 187.637 501.167 188.562 502.962C191.04 507.929 192.946 513.517 196.481 517.859C196.45 517.965 196.452 518.077 196.485 518.182C197.971 521.066 196.622 524.113 193.707 525.696C192.361 526.39 190.267 526.576 188.634 527.499C183.967 525.524 178.88 528.875 176.348 532.775C175.371 534.657 175.043 536.854 174.972 538.918C174.968 539.553 174.997 540.188 175.059 540.82C174.951 540.676 174.808 540.563 174.643 540.492C174.478 540.42 174.298 540.393 174.119 540.412C172.445 540.626 171.346 543.057 170.678 543.807C169.789 544.914 168.311 545.351 166.96 545.561C168.621 541.543 169.27 536.666 169.363 533.698C169.351 532.731 169.596 531.632 169.456 530.731C169.517 530.703 169.571 530.662 169.615 530.612C169.659 530.561 169.692 530.502 169.71 530.437C169.8 529.824 171.208 528.936 171.808 527.897C172.534 526.63 172.742 525.145 172.724 523.694C172.881 520.693 171.653 517.838 169.787 515.475C168.015 512.981 164.808 511.794 162.569 510.597C159.485 508.86 156.977 506.827 155.81 503.617C155.294 502.152 155.1 500.593 155.238 499.045C155.568 497.01 155.432 493.755 152.536 494.274C148.47 496.612 148.62 506.349 149.669 510.431C151.163 516.636 153.733 523.827 152.739 529.611C152.375 531.421 151.584 532.721 150.295 532.736C150.197 532.705 150.133 532.738 150.036 532.707C148.709 529.66 146.997 526.811 145.223 523.995C145.091 523.739 144.928 523.58 144.796 523.323C145.429 522.348 146.029 521.309 146.37 520.241C146.89 518.849 147.261 517.408 147.479 515.939C147.831 515.677 147.628 514.969 147.592 514.583C147.408 512.651 146.419 510.889 145.655 509.093C144.397 506.335 144.326 503.208 143.13 500.256C141.543 497.019 138.383 494.348 134.735 494.038C134.445 494.004 134.151 494.019 133.865 494.081C133.499 491.693 133.34 489.279 133.39 486.864C135.125 486.295 136.69 485.082 137.313 483.301C137.672 482.511 137.838 481.647 137.799 480.78C139.791 480.24 141.941 479.376 142.788 477.399C142.974 476.816 143.161 476.233 143.283 475.684C143.772 476.638 144.39 477.52 145.121 478.305C147.76 480.595 150.392 476.887 151.592 474.809C153.299 471.983 157.012 469.745 158.128 466.089C159.374 462.527 158.966 458.114 156.288 455.277C154.491 453.364 152.025 452.04 149.437 451.426C147.477 451.128 145.472 451.376 143.643 452.141L143.579 452.174C142.019 451.193 140.174 450.603 138.593 450.526C136.01 450.235 133.606 451.393 131.131 452.1C130.434 452.258 129.715 452.299 129.005 452.223L128.907 452.191C128.827 452.152 128.736 452.141 128.649 452.162C127.59 449.95 126.532 447.738 125.601 445.46C124.805 443.6 123.975 441.675 123.21 439.717C124.333 439.87 125.476 439.779 126.56 439.451C128.327 438.946 129.693 437.188 129.541 435.32C129.43 434.16 128.836 433.006 128.89 432.167C128.849 431.459 129.455 430.903 129.991 429.897C130.809 428.178 129.946 426.189 128.992 424.653C127.382 422.158 124.141 420.907 121.183 421.459C120.12 421.601 119.376 421.416 118.438 421.17C120.288 419.406 120.83 416.369 122.227 414.514C122.543 414.113 122.895 413.742 123.277 413.405C123.252 413.492 123.255 413.586 123.285 413.672C123.315 413.758 123.371 413.833 123.444 413.886C123.455 414.034 123.501 414.178 123.579 414.304C124.338 417.169 125.688 419.843 127.542 422.156C128.953 424.106 130.971 425.661 133.455 425.761C134.779 425.97 135.997 425.343 137.053 424.718C138.238 424.026 139.456 423.399 140.673 422.771C143.783 421.25 147.431 421.561 150.297 423.976C151.175 424.579 151.867 425.763 152.812 426.654C152.869 426.75 152.957 426.823 153.061 426.862C153.165 426.9 153.279 426.902 153.384 426.867C153.489 426.831 153.579 426.761 153.639 426.668C153.698 426.574 153.724 426.463 153.712 426.352C153.644 426.063 153.35 425.809 153.218 425.553C151.544 423.09 150.312 419.913 148.442 417.227C146.014 413.774 143.358 410.195 139.752 407.917C137.349 406.56 134.506 406.078 131.765 406.111C130.402 406.133 129.063 406.47 127.851 407.094C126.64 407.718 125.588 408.614 124.779 409.711C124.256 410.482 123.843 411.323 123.552 412.209C123.437 412.256 123.337 412.335 123.265 412.438C120.931 414.046 120.445 416.567 119.247 418.806C118.616 419.943 118.14 420.594 117.212 421.153L116.956 421.285C115.404 415.597 114.107 409.776 114.523 404.128C114.542 403.834 114.581 403.543 114.641 403.255C115.092 403.185 115.575 403.18 115.993 403.045C117.632 402.607 118.581 401.144 119.045 399.526C119.793 397.357 119.859 394.808 118.449 392.859C118.22 392.571 117.858 392.028 117.501 391.806C117.542 391.692 117.563 391.572 117.561 391.451C118.697 392.082 119.82 391.585 120.746 390.864L120.779 390.928C121.203 391.277 121.845 391.108 122.331 391.264C122.784 391.355 124.044 391.598 124.434 391.883C125.668 392.545 126.194 393.409 127.014 394.528C127.736 395.449 128.691 396.161 129.78 396.591C132.18 397.786 135.082 397.751 136.364 399.767C137.382 401.27 138.056 403.681 139.398 405.341C140.12 406.247 140.929 407.08 141.814 407.827C142.271 408.24 142.824 408.685 143.437 408.774C145.018 408.852 144.129 407.283 143.861 406.448C143.463 405.275 143.242 404.05 143.204 402.812C143.114 400.749 144.285 398.929 144.225 396.609C144.332 394.769 143.762 393.035 142.873 391.466C141.788 389.326 140.22 387.468 138.293 386.04C136.903 385.028 135.311 384.33 133.625 383.995C131.94 383.659 130.202 383.693 128.531 384.095C126.925 384.598 125.583 385.614 124.272 386.532C122.322 387.943 120.386 390.481 118.712 390.695C118.1 390.767 118.098 390.606 117.546 390.322C117.968 387.834 118.261 385.412 118.682 382.924C118.983 381.147 119.892 378.976 121.094 377.059C121.191 377.09 121.255 377.057 121.383 376.991C122.599 376.202 124.285 376.955 126.161 377.448C129.521 377.988 133.036 378.042 132.983 373.69C132.968 372.4 132.851 370.757 133.098 369.819C133.498 368.234 134.024 366.422 133.198 364.82C134.54 363.804 135.915 362.852 137.323 361.965C139.714 360.513 142.25 359.316 144.89 358.39C145.863 358.862 146.838 359.495 147.904 359.676C149.972 360.07 152.678 359.811 154.422 360.048C156.524 360.506 157.924 361.65 159.933 362.561C162.039 363.341 164.387 362.861 166.58 362.867C167.289 362.826 168.838 363.001 168.18 361.88C164.287 357.316 159.975 352.726 154.337 350.44C150.287 348.877 143.587 349.41 142.358 354.423C142.376 355.874 142.968 356.866 143.176 358.057C142.477 358.32 141.792 358.619 141.123 358.952C138.148 360.351 135.336 362.072 132.737 364.084C131.916 362.804 130.645 361.756 129.41 360.932C128.045 360.013 126.712 359.159 125.125 358.598C122.016 357.443 118.557 359.387 116.119 360.481C115.148 360.955 114.081 361.2 113 361.196C112.13 361.239 111.161 361.089 110.458 361.613C109.244 362.563 109.524 364.366 110.152 365.583C110.581 366.417 111.49 366.922 112.333 367.298C113.661 367.83 115.916 367.642 116.885 367.791C118.112 367.969 118.925 368.443 119.515 369.275C119.761 369.656 119.88 370.107 119.853 370.56C119.799 371.399 119.551 372.176 119.56 372.982C119.444 374.015 119.875 375.01 120.466 375.841C120.519 375.954 120.597 376.052 120.695 376.129C119.334 378.209 118.297 380.446 117.876 382.934C117.394 385.777 117.106 388.521 116.558 391.237C116.43 391.149 116.287 391.085 116.136 391.048C112.862 389.573 108.459 385.434 104.328 387.806C102.339 388.669 100.883 390.879 99.4768 391.928C96.7267 393.831 93.7358 394.48 90.6866 392.969C88.2237 391.968 87.5675 393.685 88.8495 395.7C89.8672 397.203 91.3007 398.411 92.8604 399.392C94.0958 400.216 95.4261 400.909 96.974 400.922C99.326 400.765 101.861 399.702 103.735 400.034C105.512 400.335 107.167 401.185 108.851 401.778C110.34 402.308 112.022 402.739 113.667 402.783C113.607 403.071 113.568 403.362 113.549 403.655C113.326 406.528 113.587 409.394 114.008 412.259C114.492 414.929 115.073 417.631 115.782 420.267C114.907 419.893 113.946 419.771 113.005 419.913C111.203 420.193 109.733 421.275 108.064 421.973C106.524 422.604 104.141 422.858 103.094 421.614C101.95 420.338 101.123 418.575 99.3747 418.015C98.017 417.742 98.1997 419.513 98.2422 420.383C98.2928 421.898 99.0193 423.309 99.7769 424.621C100.999 426.773 102.698 428.616 104.744 430.01C107.247 431.721 109.611 432.53 112.144 433.983C114.16 435.377 116.147 437.03 118.479 437.936C119.635 438.44 120.839 438.825 122.073 439.086C122.671 440.562 123.302 442.102 123.901 443.578C126.057 448.55 128.468 453.229 130.205 458.173C127.103 457.663 124.003 457.314 121.082 455.737C119.46 454.95 117.351 453.847 115.627 452.547C113.609 450.991 109.567 447.397 108.262 451.475C107.773 453.674 108.64 455.985 109.886 457.776C111.623 460.044 113.874 462.209 114.935 464.582C117.008 470.652 118.383 477.729 123.504 482.471C125.526 484.349 127.744 486.45 130.617 486.673C131.213 486.692 131.808 486.631 132.388 486.491C132.359 486.749 132.394 486.974 132.365 487.233C132.391 489.337 132.578 491.437 132.925 493.514C128.159 494.023 123.68 496.979 120.66 500.563C117.213 505.114 114.45 510.145 112.458 515.495C111.837 517.437 110.603 519.451 111.241 521.475C111.81 523.21 113.727 524.411 115.566 524.518C116.953 524.533 118.235 523.873 119.552 523.438C120.055 523.247 120.57 523.09 121.094 522.968C120.878 524.493 120.285 525.941 119.368 527.179C118.005 529.098 115.901 531.155 114.738 533.619C113.564 532.918 112.25 532.483 110.889 532.343C109.528 532.204 108.153 532.364 106.861 532.812C103.489 533.983 101.204 536.944 98.6516 539.232C97.0903 540.766 95.9736 541.747 93.7849 542.063C91.8219 542.345 88.5603 541.998 86.2802 542.767C83.9342 543.409 82.3127 545.298 81.3708 547.405C78.7572 552.564 79.0239 558.591 79.0922 564.233C79.3187 569.55 79.2545 574.936 80.0926 580.182C80.5025 582.08 80.6913 584.335 81.4856 586.033C83.0254 588.079 84.1418 584.422 84.5535 583.804ZM208.787 453.123C209.71 454.756 210.407 456.424 211.202 458.123C211.961 459.598 212.752 460.975 213.383 462.515C213.597 462.949 213.775 463.399 213.915 463.862C212.175 463.948 210.241 463.971 208.85 463.634C207.654 463.358 206.453 462.76 205.197 462.84C205.145 462.858 205.088 462.859 205.035 462.842C206.061 459.638 207.472 456.396 208.787 453.123V453.123ZM199.142 487.29C199.353 487.166 199.511 486.969 199.587 486.737C202.931 483.311 207.433 484.965 212.293 486.841C215.338 488.029 218.599 488.376 221.549 489.695C223.979 490.632 226.774 492.436 228.439 494.093C228.798 494.435 229.126 494.809 229.42 495.209C226.763 496.822 224.697 499.265 223.831 502.306C221.959 507.488 222.032 513.453 220.834 518.369C219.812 521.896 218.207 525.076 215.756 527.717C213.882 524.709 210.918 524.938 207.77 525.912C206.195 526.318 205.005 526.526 204.22 525.632C203.631 524.962 203.266 524.096 202.804 523.199C203.031 523.325 203.323 523.419 203.55 523.545C205.168 524.009 206.939 523.826 208.547 523.484C212.113 522.377 213.643 518.263 214.118 514.936C214.195 513.99 214.039 513.04 213.665 512.168C214.295 512.07 214.903 511.867 215.464 511.566C216.648 510.875 217.538 509.768 218.363 508.693C220.329 505.896 220.769 502.344 219.955 499.033C218.226 492.057 212.459 489.837 205.815 489.692C203.556 489.558 201.126 488.621 198.761 487.65C199.046 487.421 199.077 487.324 199.141 487.291L199.142 487.29ZM191.122 527.92C192.762 527.48 194.434 527.105 195.709 525.961C197.104 524.737 197.992 523.036 198.199 521.191C198.23 520.671 198.18 520.15 198.051 519.645C198.214 519.804 198.377 519.964 198.573 520.187C197.892 522.485 197.696 524.938 197.564 527.358C197.516 528.68 197.596 529.937 198.159 531.187C198.192 531.252 198.128 531.285 198.161 531.349C199.351 533.817 201.894 536.076 203.144 538.027C204.564 540.783 203.412 544.215 201.634 546.429C199.696 548.808 197.268 550.706 194.94 552.799L194.841 552.606C194.443 551.865 193.91 551.204 193.269 550.658C190.857 548.495 187.531 548.181 185.22 546.371C184.179 545.609 183.71 544.229 184.313 543.351C184.377 543.318 184.408 543.221 184.472 543.188C184.824 542.925 185.209 542.727 185.56 542.465C188.345 540.787 191.349 538.59 191.889 535.23C192.078 533.555 192.025 531.861 191.731 530.201C191.57 529.43 191.366 528.669 191.122 527.92L191.122 527.92ZM131.359 548.089C131.642 547.995 131.932 547.927 132.227 547.885C133.161 547.81 133.647 547.965 134.585 548.211C136.949 549.021 139.484 550.635 142.107 551.635C142.043 551.668 142.043 551.668 142.013 551.765C141.329 553.901 139.767 555.275 137.387 555.852C135.457 556.197 134.021 557.505 132.977 559.098C132.698 559.482 132.444 559.883 132.217 560.3C132.435 559.621 132.716 558.908 132.935 558.228C133.438 556.333 133.524 554.352 133.187 552.421C132.909 550.94 132.214 549.433 131.359 548.089ZM120.51 528.294C121.557 526.862 122.02 525.244 122.257 523.499C122.836 523.363 123.448 523.292 123.963 523.189C126.958 522.862 129.449 523.606 131.73 525.513C133.456 526.975 135.471 528.208 137.76 528.245C140.563 528.018 142.897 526.409 144.548 524.261C146.751 527.749 148.856 531.206 150.356 535.218C151.188 537.304 151.728 539.296 152.3 541.352C151.779 541.633 151.182 541.742 150.595 541.663C149.498 541.58 147.876 540.793 146.549 540.423C142.376 539.248 137.965 539.817 133.917 541.092C131.927 541.793 129.816 543.206 128.239 543.45C128.056 543.449 127.873 543.462 127.691 543.489C124.43 543.142 121.127 541.924 119.254 539.077C118.368 537.83 117.707 536.387 116.533 535.37C116.273 535.179 116.012 534.989 115.719 534.735C116.917 532.497 118.83 530.7 120.51 528.294Z" fill="url(#paint0_linear_292_833)"/>
<path d="M650.83 287.539C664.703 287.539 675.949 276.293 675.949 262.42C675.949 248.547 664.703 237.301 650.83 237.301C636.957 237.301 625.71 248.547 625.71 262.42C625.71 276.293 636.957 287.539 650.83 287.539Z" fill="url(#paint1_linear_292_833)"/>
<path fill-rule="evenodd" clip-rule="evenodd" d="M636.113 264.613L644.429 274.985C644.77 275.41 645.206 275.751 645.702 275.978C646.198 276.206 646.74 276.315 647.285 276.296C647.831 276.277 648.364 276.131 648.843 275.87C649.322 275.609 649.734 275.239 650.045 274.791L665.577 252.411C666.09 251.646 666.281 250.71 666.11 249.806C665.94 248.901 665.42 248.1 664.663 247.575C663.906 247.05 662.974 246.844 662.066 247.001C661.159 247.158 660.35 247.665 659.813 248.414L646.961 266.935L641.583 260.228C640.999 259.509 640.155 259.051 639.234 258.952C638.313 258.854 637.391 259.124 636.668 259.703C635.946 260.282 635.482 261.124 635.378 262.044C635.274 262.964 635.538 263.888 636.113 264.614L636.113 264.613Z" fill="white"/>
<path fill-rule="evenodd" clip-rule="evenodd" d="M628.735 319.747C628.327 316.403 626.71 313.324 624.187 311.09C621.665 308.857 618.413 307.624 615.044 307.625H426.577C424.624 307.623 422.694 308.037 420.913 308.838C419.132 309.639 417.542 310.81 416.247 312.272C414.953 313.733 413.984 315.454 413.404 317.318C412.825 319.183 412.648 321.15 412.886 323.088C416.537 353.021 424.496 418.312 427.799 445.371C428.207 448.715 429.824 451.794 432.347 454.028C434.869 456.261 438.121 457.494 441.49 457.494H629.958C631.911 457.494 633.841 457.081 635.622 456.279C637.402 455.478 638.993 454.308 640.287 452.846C641.581 451.384 642.55 449.664 643.13 447.799C643.71 445.935 643.887 443.968 643.649 442.03C639.997 412.098 632.038 346.807 628.735 319.747Z" fill="url(#paint2_linear_292_833)"/>
<path fill-rule="evenodd" clip-rule="evenodd" d="M625.419 311.978C625.419 310.167 625.063 308.373 624.37 306.7C623.678 305.027 622.662 303.506 621.382 302.225C620.101 300.944 618.581 299.928 616.908 299.235C615.235 298.542 613.442 298.185 611.63 298.185H422.951C421.14 298.185 419.347 298.542 417.673 299.235C416 299.928 414.48 300.944 413.2 302.225C411.919 303.506 410.904 305.027 410.211 306.7C409.518 308.373 409.162 310.167 409.163 311.978V434.838C409.162 436.649 409.518 438.443 410.211 440.116C410.903 441.79 411.919 443.31 413.199 444.591C414.48 445.872 416 446.888 417.673 447.582C419.346 448.275 421.14 448.632 422.951 448.632H611.629C613.441 448.632 615.234 448.275 616.907 447.582C618.58 446.888 620.101 445.872 621.381 444.591C622.662 443.31 623.677 441.79 624.37 440.116C625.062 438.443 625.418 436.649 625.418 434.838L625.419 311.978Z" fill="url(#paint3_linear_292_833)"/>
<path fill-rule="evenodd" clip-rule="evenodd" d="M531.581 328.929C531.581 327.117 531.224 325.324 530.531 323.65C529.838 321.977 528.823 320.456 527.542 319.175C526.261 317.895 524.741 316.879 523.067 316.185C521.394 315.492 519.6 315.135 517.789 315.135H440.151C438.34 315.135 436.546 315.492 434.873 316.185C433.2 316.879 431.679 317.895 430.398 319.175C429.118 320.456 428.102 321.977 427.409 323.65C426.716 325.324 426.359 327.117 426.36 328.929V374.544C426.359 376.355 426.716 378.149 427.409 379.822C428.102 381.496 429.118 383.016 430.398 384.297C431.679 385.578 433.2 386.594 434.873 387.287C436.546 387.98 438.34 388.337 440.151 388.337H517.789C519.6 388.337 521.394 387.98 523.067 387.287C524.741 386.594 526.261 385.578 527.542 384.297C528.823 383.016 529.838 381.496 530.531 379.822C531.224 378.149 531.581 376.355 531.581 374.544V328.929ZM455.585 405.454C455.585 404.381 455.374 403.319 454.963 402.328C454.553 401.337 453.951 400.436 453.193 399.678C452.434 398.919 451.534 398.318 450.543 397.907C449.552 397.497 448.49 397.285 447.417 397.285H434.248C433.175 397.285 432.113 397.497 431.122 397.907C430.131 398.318 429.23 398.919 428.472 399.678C427.713 400.436 427.112 401.337 426.701 402.328C426.291 403.319 426.08 404.381 426.08 405.454V405.457C426.08 406.53 426.291 407.592 426.701 408.583C427.112 409.574 427.713 410.475 428.472 411.233C429.23 411.992 430.131 412.594 431.122 413.004C432.113 413.415 433.175 413.626 434.248 413.626H447.417C448.49 413.626 449.552 413.415 450.543 413.004C451.534 412.594 452.434 411.992 453.193 411.233C453.951 410.475 454.553 409.574 454.963 408.583C455.374 407.592 455.585 406.53 455.585 405.457V405.454ZM494.56 405.454C494.56 404.381 494.349 403.319 493.939 402.328C493.528 401.337 492.927 400.436 492.168 399.678C491.41 398.919 490.509 398.318 489.518 397.907C488.527 397.497 487.465 397.285 486.392 397.285H473.223C472.15 397.285 471.088 397.497 470.097 397.907C469.106 398.318 468.206 398.919 467.447 399.678C466.689 400.436 466.087 401.337 465.677 402.328C465.266 403.319 465.055 404.381 465.055 405.454V405.457C465.055 406.53 465.266 407.592 465.677 408.583C466.087 409.574 466.689 410.475 467.447 411.233C468.206 411.992 469.106 412.594 470.097 413.004C471.088 413.415 472.15 413.626 473.223 413.626H486.392C487.465 413.626 488.527 413.415 489.518 413.004C490.509 412.594 491.41 411.992 492.168 411.233C492.927 410.475 493.528 409.574 493.939 408.583C494.349 407.592 494.56 406.53 494.56 405.457V405.454ZM531.911 405.454C531.911 404.381 531.7 403.319 531.289 402.328C530.879 401.337 530.277 400.436 529.519 399.678C528.76 398.919 527.86 398.318 526.869 397.907C525.878 397.497 524.816 397.285 523.743 397.285H510.573C509.501 397.285 508.439 397.497 507.448 397.907C506.457 398.318 505.556 398.919 504.798 399.678C504.039 400.436 503.438 401.337 503.027 402.328C502.617 403.319 502.406 404.381 502.406 405.454V405.457C502.406 406.53 502.617 407.592 503.027 408.583C503.438 409.574 504.039 410.475 504.798 411.233C505.556 411.992 506.457 412.594 507.448 413.004C508.439 413.415 509.501 413.626 510.573 413.626H523.743C524.816 413.626 525.878 413.415 526.869 413.004C527.86 412.594 528.761 411.992 529.519 411.233C530.278 410.475 530.879 409.574 531.29 408.583C531.7 407.592 531.911 406.53 531.911 405.457L531.911 405.454ZM455.585 429.07C455.585 427.997 455.374 426.935 454.963 425.944C454.553 424.953 453.951 424.053 453.193 423.294C452.434 422.535 451.534 421.934 450.543 421.523C449.552 421.113 448.49 420.901 447.417 420.901H434.248C433.175 420.901 432.113 421.113 431.122 421.523C430.131 421.934 429.23 422.535 428.472 423.294C427.713 424.052 427.112 424.953 426.701 425.944C426.291 426.935 426.08 427.997 426.08 429.07V429.073C426.08 430.146 426.291 431.208 426.701 432.199C427.112 433.19 427.713 434.091 428.472 434.85C429.23 435.608 430.131 436.21 431.122 436.62C432.113 437.031 433.175 437.242 434.248 437.242H447.417C448.49 437.242 449.552 437.031 450.543 436.62C451.534 436.21 452.434 435.608 453.193 434.849C453.951 434.091 454.553 433.19 454.963 432.199C455.374 431.208 455.585 430.146 455.585 429.073V429.07ZM494.56 429.07C494.56 427.997 494.349 426.935 493.939 425.944C493.528 424.953 492.927 424.053 492.168 423.294C491.41 422.535 490.509 421.934 489.518 421.523C488.527 421.113 487.465 420.901 486.392 420.901H473.223C472.15 420.901 471.088 421.113 470.097 421.523C469.106 421.934 468.206 422.535 467.447 423.294C466.689 424.053 466.087 424.953 465.677 425.944C465.266 426.935 465.055 427.997 465.055 429.07V429.073C465.055 430.146 465.266 431.208 465.677 432.199C466.087 433.19 466.689 434.091 467.447 434.849C468.206 435.608 469.106 436.21 470.097 436.62C471.088 437.031 472.15 437.242 473.223 437.242H486.392C487.465 437.242 488.527 437.031 489.518 436.62C490.509 436.21 491.41 435.608 492.168 434.849C492.927 434.091 493.528 433.19 493.939 432.199C494.349 431.208 494.56 430.146 494.56 429.073V429.07ZM531.911 429.07C531.911 427.997 531.7 426.935 531.289 425.944C530.879 424.953 530.277 424.053 529.519 423.294C528.76 422.535 527.86 421.934 526.869 421.523C525.878 421.113 524.816 420.901 523.743 420.901H510.573C509.501 420.901 508.439 421.113 507.448 421.523C506.457 421.934 505.556 422.535 504.798 423.294C504.039 424.053 503.438 424.953 503.027 425.944C502.617 426.935 502.406 427.997 502.406 429.07V429.073C502.406 430.146 502.617 431.208 503.027 432.199C503.438 433.19 504.039 434.091 504.798 434.849C505.556 435.608 506.457 436.21 507.448 436.62C508.439 437.031 509.501 437.242 510.573 437.242H523.743C524.816 437.242 525.878 437.031 526.869 436.62C527.86 436.21 528.761 435.608 529.519 434.849C530.278 434.091 530.879 433.19 531.29 432.199C531.7 431.208 531.911 430.146 531.911 429.073L531.911 429.07ZM601.156 374.201C601.157 372.39 600.8 370.596 600.107 368.923C599.414 367.249 598.398 365.729 597.117 364.448C595.836 363.167 594.316 362.151 592.642 361.458C590.968 360.765 589.175 360.408 587.363 360.408H572.462C570.65 360.408 568.856 360.765 567.183 361.458C565.509 362.151 563.989 363.167 562.708 364.448C561.427 365.729 560.411 367.249 559.718 368.923C559.025 370.596 558.668 372.39 558.668 374.201V407.225C558.668 409.037 559.025 410.831 559.718 412.504C560.411 414.178 561.427 415.698 562.708 416.979C563.989 418.26 565.509 419.276 567.183 419.969C568.856 420.662 570.65 421.019 572.462 421.019H587.363C589.175 421.019 590.968 420.662 592.642 419.969C594.316 419.276 595.836 418.26 597.117 416.979C598.398 415.698 599.414 414.178 600.107 412.504C600.8 410.831 601.157 409.037 601.156 407.225V374.201Z" fill="white"/>
<path fill-rule="evenodd" clip-rule="evenodd" d="M596.57 393.341C596.03 390.079 594.335 387.12 591.796 385.003C589.256 382.886 586.041 381.751 582.735 381.805L576.818 381.902C573.607 381.956 570.515 383.128 568.075 385.216C565.636 387.305 564.001 390.179 563.454 393.344C562.831 396.942 562.131 400.998 561.461 404.874C561.118 406.855 561.213 408.887 561.738 410.827C562.263 412.768 563.206 414.57 564.501 416.108C565.796 417.646 567.411 418.882 569.233 419.73C571.056 420.578 573.042 421.017 575.052 421.018H584.891C586.893 421.018 588.871 420.582 590.688 419.74C592.505 418.899 594.117 417.672 595.411 416.145C596.706 414.618 597.653 412.827 598.186 410.897C598.719 408.967 598.825 406.944 598.498 404.969C597.855 401.093 597.212 397.217 596.57 393.341Z" fill="url(#paint4_linear_292_833)"/>
<path d="M557.685 335.59C562.749 335.59 566.854 331.485 566.854 326.421C566.854 321.357 562.749 317.252 557.685 317.252C552.621 317.252 548.516 321.357 548.516 326.421C548.516 331.485 552.621 335.59 557.685 335.59Z" fill="white"/>
<path d="M579.977 335.594C585.041 335.594 589.146 331.489 589.146 326.425C589.146 321.361 585.041 317.256 579.977 317.256C574.913 317.256 570.808 321.361 570.808 326.425C570.808 331.489 574.913 335.594 579.977 335.594Z" fill="white"/>
<path d="M603.289 335.594C608.353 335.594 612.458 331.489 612.458 326.425C612.458 321.361 608.353 317.256 603.289 317.256C598.225 317.256 594.119 321.361 594.119 326.425C594.119 331.489 598.225 335.594 603.289 335.594Z" fill="white"/>
<path fill-rule="evenodd" clip-rule="evenodd" d="M546.564 265.231C548.349 261.472 548.568 257.157 547.172 253.236C545.775 249.315 542.879 246.109 539.12 244.323L348.895 154.036C345.134 152.253 340.819 152.036 336.899 153.434C332.979 154.831 329.774 157.729 327.989 161.489L278.35 266.072C276.565 269.832 276.347 274.147 277.743 278.068C279.139 281.989 282.035 285.195 285.795 286.981L476.019 377.268C479.78 379.051 484.095 379.268 488.016 377.87C491.936 376.472 495.141 373.575 496.925 369.815L546.564 265.231Z" fill="url(#paint5_linear_292_833)"/>
<path d="M393.895 255.499C404.568 232.992 394.902 206.059 372.304 195.343C349.706 184.626 322.734 194.185 312.061 216.692C301.387 239.199 311.054 266.132 333.652 276.849C356.25 287.565 383.222 278.006 393.895 255.499Z" fill="#FEF2E3"/>
<mask id="mask0_292_833" style="mask-type:luminance" maskUnits="userSpaceOnUse" x="307" y="190" width="92" height="92">
<path d="M393.895 255.499C404.568 232.992 394.902 206.059 372.304 195.343C349.706 184.626 322.734 194.185 312.061 216.692C301.387 239.199 311.054 266.132 333.652 276.849C356.25 287.565 383.222 278.006 393.895 255.499Z" fill="white"/>
</mask>
<g mask="url(#mask0_292_833)">
<path fill-rule="evenodd" clip-rule="evenodd" d="M278.257 275.052C282.493 263.18 303.672 240.785 318.221 237.14C343.282 230.86 362.234 251.141 367.69 265.042C376.146 286.59 346.542 290.773 349.512 321.1C343.154 323.913 304.666 316.042 292.792 308.367C282.618 301.793 274.178 286.462 278.257 275.052Z" fill="url(#paint6_linear_292_833)"/>
<path fill-rule="evenodd" clip-rule="evenodd" d="M366.158 214.214C372.831 216.787 375.558 224.206 371.707 231.365C368.977 236.438 359.623 239.208 351.459 239.117C344.407 239.039 347.617 230.615 350.537 223.042C353.458 215.468 359.49 211.643 366.158 214.214Z" fill="url(#paint7_linear_292_833)"/>
<path fill-rule="evenodd" clip-rule="evenodd" d="M366.652 222.511C362.618 221.757 358.252 218.881 357.073 214.816C356.64 213.319 356.469 211.631 357.003 210.135C357.957 207.436 361.222 206.005 363.906 206.598C364.5 203.273 369.157 201.479 371.944 203.03C374.621 204.518 376.07 207.854 376.228 210.803C377.256 211.034 378.201 210.786 379.273 211.266C384.519 213.616 386.937 219.815 387.238 225.206C387.505 230.004 385.486 235.465 380.472 236.888C380.867 238.178 380.453 239.696 380.149 240.958C379.541 243.497 378.292 245.914 376.021 247.346C371.464 250.216 364.79 248.282 362.648 243.344C361.935 241.645 361.639 239.8 361.785 237.962C359.339 237.057 358.705 233.227 359.974 231.231C360.739 230.027 361.942 229.569 363.299 229.395C361.758 227.678 362.415 224.929 363.955 223.469C364.484 222.964 365.254 222.457 366.013 222.438L366.652 222.511Z" fill="black"/>
</g>
<path d="M494.958 332.32C502.036 317.408 498.917 301.115 487.992 295.93C477.067 290.744 462.473 298.629 455.395 313.541C448.317 328.454 451.435 344.746 462.361 349.932C473.286 355.117 487.88 347.232 494.958 332.32Z" fill="#FEF2E3"/>
<mask id="mask1_292_833" style="mask-type:luminance" maskUnits="userSpaceOnUse" x="451" y="294" width="48" height="58">
<path d="M494.958 332.32C502.036 317.408 498.917 301.115 487.992 295.93C477.067 290.744 462.473 298.629 455.395 313.541C448.317 328.454 451.435 344.746 462.361 349.932C473.286 355.117 487.88 347.232 494.958 332.32Z" fill="white"/>
</mask>
<g mask="url(#mask1_292_833)">
<path fill-rule="evenodd" clip-rule="evenodd" d="M452.002 310.271C454.634 312.92 457.841 314.804 461.267 315.67C464.814 316.596 468.567 316.319 471.939 314.882C474.384 313.842 477.367 311.558 480.398 310.449C482.253 309.765 484.129 309.535 485.879 310.543C487.079 311.236 487.506 312.338 487.492 313.532C487.46 315.518 486.305 317.729 485.164 319.078C481.891 322.918 476.702 323.821 472.614 326.489C471.502 327.203 470.493 328.067 469.616 329.056C468.172 330.735 466.924 332.573 465.895 334.534C464.345 337.382 463.082 340.434 461.731 343.28C460.853 345.101 460.061 346.881 458.909 348.392C458.185 349.358 457.279 350.172 456.242 350.789C455.972 350.953 455.779 351.217 455.704 351.524C455.629 351.831 455.679 352.154 455.843 352.424C456.007 352.694 456.272 352.887 456.578 352.962C456.885 353.037 457.209 352.987 457.478 352.823C458.755 352.022 459.862 350.98 460.739 349.756C461.948 348.097 462.772 346.166 463.675 344.181C464.947 341.334 466.129 338.288 467.601 335.437C468.562 333.579 469.643 331.801 470.98 330.236C474.26 326.38 479.439 325.414 483.429 322.703C484.527 321.976 485.516 321.099 486.367 320.096C487.714 318.51 489.034 315.895 489.088 313.559C489.121 311.794 488.466 310.173 486.695 309.127C485.039 308.143 483.268 308.013 481.476 308.372C477.865 309.09 474.136 311.947 471.212 313.133C468.218 314.334 464.908 314.504 461.806 313.616C458.789 312.778 455.984 311.021 453.722 308.62C453.502 308.396 453.202 308.268 452.889 308.264C452.575 308.259 452.272 308.379 452.046 308.596C451.819 308.813 451.688 309.111 451.679 309.425C451.671 309.738 451.787 310.043 452.001 310.271H452.002Z" fill="black"/>
<path fill-rule="evenodd" clip-rule="evenodd" d="M447.249 325.063C449.133 325.982 451.341 326.275 453.604 326.119C456.766 325.904 460.012 324.843 462.472 323.604C463.701 322.987 465.242 321.824 466.82 321.056C467.759 320.604 468.694 320.274 469.581 320.405C469.877 320.449 470.084 320.512 470.194 320.669C470.405 320.975 470.274 321.418 470.109 321.903C469.571 323.455 468.093 325.263 467.554 325.731C466.752 326.381 465.889 326.953 464.978 327.437C462.74 328.651 460.29 329.534 458.145 330.89C455.765 332.401 453.736 334.404 452.192 336.763C450.615 339.122 449.549 341.785 449.062 344.581C449.039 344.735 449.047 344.893 449.086 345.044C449.124 345.196 449.191 345.338 449.285 345.464C449.378 345.589 449.495 345.695 449.629 345.775C449.764 345.855 449.912 345.908 450.067 345.931C450.221 345.953 450.379 345.945 450.531 345.907C450.682 345.869 450.825 345.801 450.95 345.708C451.075 345.614 451.181 345.497 451.261 345.363C451.341 345.229 451.394 345.08 451.417 344.926C451.763 342.419 452.629 340.012 453.957 337.858C455.286 335.704 457.049 333.851 459.134 332.417C461.203 331.03 463.594 330.104 465.774 328.871C466.767 328.314 467.708 327.67 468.587 326.946C469.344 326.293 471.598 323.435 471.854 321.452C471.912 321.139 471.905 320.818 471.835 320.508C471.764 320.198 471.631 319.905 471.443 319.649C471.122 319.241 470.616 318.92 469.833 318.792C468.905 318.636 467.925 318.812 466.936 319.172C465.055 319.856 463.146 321.267 461.674 321.954C459.525 322.941 457.238 323.591 454.891 323.881C452.554 324.139 450.215 323.956 448.346 322.948C448.207 322.874 448.054 322.828 447.897 322.813C447.74 322.798 447.582 322.815 447.431 322.861C447.281 322.908 447.141 322.984 447.02 323.086C446.899 323.187 446.799 323.311 446.727 323.451C446.654 323.591 446.61 323.744 446.597 323.901C446.584 324.058 446.602 324.216 446.651 324.366C446.7 324.516 446.778 324.655 446.88 324.775C446.983 324.895 447.108 324.993 447.249 325.064L447.249 325.063ZM477.825 305.035C480.375 303.331 483.742 303.098 486.497 304.127C489.318 305.184 491.497 307.539 491.556 310.916C491.554 312.309 491.378 313.696 491.033 315.046C490.492 317.078 489.636 319.013 488.496 320.78C486.627 323.773 484.09 326.394 481.439 328.647C481.208 328.86 481.07 329.155 481.056 329.469C481.041 329.783 481.151 330.09 481.361 330.323C481.571 330.557 481.865 330.698 482.178 330.716C482.492 330.735 482.8 330.629 483.036 330.421C485.712 327.895 488.232 324.975 490.078 321.724C491.226 319.762 492.077 317.641 492.604 315.43C492.96 313.951 493.139 312.435 493.138 310.914C493.18 306.77 490.581 303.829 487.184 302.402C483.865 301.007 479.77 301.105 476.553 303.021C476.29 303.191 476.105 303.459 476.038 303.765C475.971 304.071 476.027 304.391 476.195 304.656C476.362 304.921 476.627 305.109 476.932 305.18C477.238 305.251 477.558 305.199 477.825 305.035ZM476.004 330.792C474.862 331.461 473.821 332.289 472.911 333.251C472.325 333.864 471.773 334.508 471.257 335.182C470.951 335.576 470.653 335.98 470.355 336.386C469.912 336.986 469.478 337.594 469.055 338.209C467.962 339.789 466.953 341.389 466.049 342.875C465.977 343.014 465.933 343.165 465.92 343.321C465.907 343.477 465.924 343.634 465.971 343.784C466.019 343.933 466.095 344.071 466.196 344.191C466.297 344.311 466.42 344.409 466.559 344.481C466.698 344.553 466.85 344.597 467.006 344.611C467.162 344.624 467.319 344.606 467.468 344.559C467.617 344.512 467.756 344.436 467.875 344.335C467.995 344.234 468.094 344.11 468.166 343.971C468.731 342.67 469.33 341.27 470.062 339.894C470.51 339.015 471.022 338.169 471.593 337.363C472.163 336.574 472.811 335.843 473.525 335.182C474.548 334.221 475.742 333.459 477.044 332.934C477.326 332.794 477.542 332.548 477.644 332.249C477.747 331.951 477.727 331.624 477.59 331.34C477.522 331.199 477.427 331.074 477.311 330.97C477.194 330.866 477.058 330.787 476.911 330.736C476.763 330.685 476.607 330.664 476.452 330.673C476.296 330.683 476.144 330.723 476.004 330.792ZM477.028 341.026C479.364 339.71 481.597 338.218 483.708 336.564C484.561 335.904 485.387 335.22 486.196 334.515C486.727 334.036 487.258 333.555 487.782 333.064C489.981 330.988 491.897 328.646 493.338 325.915C493.466 325.631 493.477 325.308 493.37 325.015C493.262 324.722 493.044 324.484 492.762 324.35C492.481 324.216 492.158 324.198 491.863 324.3C491.569 324.402 491.325 324.615 491.186 324.894C490.379 326.833 489.307 328.652 488.001 330.298C487.131 331.418 486.154 332.452 485.085 333.386C484.008 334.321 482.86 335.171 481.651 335.927C479.829 337.055 477.926 338.048 475.957 338.895C475.815 338.964 475.689 339.061 475.585 339.18C475.481 339.298 475.402 339.436 475.352 339.586C475.302 339.735 475.281 339.893 475.293 340.05C475.304 340.207 475.346 340.361 475.417 340.501C475.488 340.642 475.586 340.768 475.705 340.87C475.825 340.973 475.964 341.051 476.114 341.1C476.263 341.148 476.422 341.167 476.579 341.154C476.736 341.142 476.889 341.098 477.029 341.026H477.028ZM464.747 309.365C465.77 309.104 466.769 308.756 467.733 308.325C468.169 308.13 468.605 307.931 469.044 307.73L470.353 307.137C470.872 306.899 471.388 306.655 471.901 306.406C472.677 306.03 473.44 305.627 474.189 305.198C474.317 305.106 474.427 304.99 474.51 304.856C474.594 304.722 474.65 304.573 474.675 304.417C474.701 304.261 474.695 304.101 474.658 303.948C474.621 303.794 474.554 303.649 474.461 303.522C474.368 303.394 474.25 303.286 474.115 303.205C473.98 303.123 473.83 303.069 473.674 303.046C473.517 303.023 473.358 303.031 473.205 303.07C473.052 303.108 472.908 303.177 472.782 303.272C472.087 303.922 471.351 304.526 470.578 305.081C470.058 305.442 469.513 305.765 468.947 306.047C468.373 306.308 467.776 306.514 467.164 306.663C466.265 306.881 465.344 306.993 464.42 307C464.106 307.043 463.823 307.209 463.632 307.462C463.441 307.714 463.358 308.033 463.401 308.346C463.444 308.66 463.611 308.943 463.863 309.134C464.116 309.326 464.434 309.408 464.747 309.365L464.747 309.365Z" fill="black"/>
</g>
<path fill-rule="evenodd" clip-rule="evenodd" d="M447.467 291.773C447.967 290.716 448.027 289.504 447.635 288.403C447.243 287.302 446.43 286.401 445.375 285.898L402.928 265.751C402.405 265.502 401.838 265.358 401.26 265.328C400.681 265.298 400.102 265.383 399.556 265.577C399.01 265.772 398.508 266.072 398.078 266.461C397.649 266.85 397.301 267.321 397.053 267.845L397.051 267.85C396.801 268.373 396.657 268.94 396.628 269.519C396.598 270.097 396.682 270.676 396.877 271.222C397.071 271.768 397.372 272.27 397.761 272.699C398.15 273.129 398.62 273.477 399.144 273.724L441.591 293.871C442.648 294.37 443.859 294.43 444.96 294.037C446.061 293.645 446.962 292.833 447.465 291.778L447.467 291.773ZM528.577 280.256C528.826 279.733 528.97 279.166 529 278.588C529.03 278.009 528.945 277.431 528.751 276.885C528.557 276.339 528.257 275.837 527.868 275.407C527.479 274.978 527.01 274.629 526.486 274.381L423.755 225.622C423.232 225.373 422.665 225.23 422.086 225.2C421.508 225.171 420.929 225.256 420.384 225.451C419.838 225.645 419.336 225.946 418.907 226.335C418.477 226.724 418.129 227.193 417.882 227.717L417.879 227.722C417.63 228.245 417.487 228.812 417.457 229.39C417.427 229.969 417.512 230.547 417.706 231.093C417.901 231.639 418.201 232.141 418.589 232.57C418.978 233 419.447 233.348 419.971 233.596L522.702 282.355C523.225 282.604 523.792 282.748 524.37 282.777C524.949 282.806 525.527 282.722 526.073 282.527C526.618 282.333 527.12 282.032 527.549 281.644C527.979 281.255 528.327 280.785 528.575 280.262L528.577 280.256ZM440.448 306.563C440.947 305.506 441.008 304.294 440.615 303.193C440.223 302.092 439.411 301.191 438.356 300.688L395.909 280.541C395.386 280.292 394.819 280.147 394.24 280.117C393.661 280.087 393.082 280.172 392.536 280.367C391.99 280.561 391.488 280.862 391.058 281.251C390.629 281.64 390.28 282.11 390.033 282.634L390.031 282.639C389.781 283.162 389.637 283.729 389.607 284.308C389.577 284.887 389.662 285.466 389.857 286.011C390.051 286.557 390.352 287.059 390.741 287.489C391.13 287.918 391.6 288.266 392.124 288.514L434.57 308.66C435.627 309.159 436.839 309.219 437.94 308.827C439.041 308.435 439.941 307.622 440.445 306.568L440.448 306.563ZM521.131 295.943C521.38 295.42 521.524 294.853 521.554 294.275C521.584 293.696 521.499 293.118 521.305 292.572C521.111 292.026 520.811 291.524 520.422 291.095C520.033 290.665 519.564 290.316 519.04 290.068L416.309 241.309C415.786 241.06 415.219 240.917 414.641 240.887C414.062 240.858 413.483 240.943 412.938 241.138C412.392 241.332 411.89 241.633 411.461 242.022C411.032 242.411 410.683 242.88 410.436 243.404L410.433 243.409C410.184 243.932 410.041 244.499 410.011 245.077C409.981 245.656 410.066 246.234 410.261 246.78C410.455 247.326 410.755 247.828 411.143 248.257C411.532 248.686 412.001 249.035 412.525 249.283L515.256 298.042C515.779 298.291 516.346 298.435 516.924 298.464C517.503 298.494 518.081 298.409 518.627 298.214C519.172 298.02 519.674 297.719 520.103 297.331C520.533 296.942 520.881 296.472 521.129 295.949L521.131 295.943ZM433.002 322.251C433.501 321.194 433.561 319.982 433.169 318.881C432.777 317.78 431.964 316.879 430.909 316.375L388.463 296.229C387.94 295.979 387.373 295.835 386.794 295.805C386.215 295.775 385.636 295.86 385.09 296.055C384.544 296.249 384.042 296.55 383.613 296.939C383.183 297.328 382.835 297.798 382.588 298.323L382.585 298.328C382.336 298.851 382.192 299.418 382.162 299.996C382.132 300.575 382.217 301.154 382.411 301.7C382.606 302.246 382.906 302.748 383.295 303.177C383.684 303.606 384.154 303.955 384.678 304.202L427.125 324.348C428.182 324.847 429.393 324.907 430.494 324.515C431.595 324.122 432.496 323.31 432.999 322.255L433.002 322.251Z" fill="#FEF2E3"/>
<path fill-rule="evenodd" clip-rule="evenodd" d="M214.434 504.204C214.434 504.204 127.656 376.519 137.189 330.36C146.722 284.201 271.63 227.251 271.63 227.251C280.048 214.011 303.721 204.844 306.327 207.941C301.342 218.714 296.9 228.304 296.9 228.304C296.9 228.304 314.41 236.994 306.942 241.317C302.368 243.961 282.77 240.956 282.77 240.956C282.77 240.956 200.547 307.288 205.808 339.92C211.07 372.563 312.897 409.39 314.334 436.771C315.771 464.152 214.434 504.204 214.434 504.204Z" fill="url(#paint8_linear_292_833)"/>
<mask id="mask2_292_833" style="mask-type:luminance" maskUnits="userSpaceOnUse" x="136" y="207" width="179" height="298">
<path d="M214.434 504.204C214.434 504.204 127.656 376.519 137.189 330.36C146.722 284.201 271.63 227.251 271.63 227.251C280.048 214.011 303.721 204.844 306.327 207.941C301.342 218.714 296.9 228.304 296.9 228.304C296.9 228.304 314.41 236.994 306.942 241.317C302.368 243.961 282.77 240.956 282.77 240.956C282.77 240.956 200.547 307.288 205.808 339.92C211.07 372.563 312.897 409.39 314.334 436.771C315.771 464.152 214.434 504.204 214.434 504.204Z" fill="white"/>
</mask>
<g mask="url(#mask2_292_833)">
<path fill-rule="evenodd" clip-rule="evenodd" d="M158.002 408.721C161.872 409.204 165.722 409.643 169.617 409.05C172.658 408.586 175.297 407.149 177.59 405.105C181.972 401.182 185.614 395.399 186.525 389.524C187.857 380.898 185.939 371.175 192.071 363.828C199.624 354.761 211.91 359.638 221.846 356.3C227.341 354.447 235.22 348.951 241.13 350.754C245.989 352.236 249.043 357.798 251.179 361.986C256.556 372.501 259.88 384.193 261.55 395.853C265.508 423.537 255.741 451.838 242.429 475.777C236.301 486.8 229.077 497.983 219.256 506.096C215.345 509.327 210.979 512.034 206.249 513.88C177.085 525.233 155.394 492.775 153.074 467.443C151.774 453.186 154.405 439.421 156.953 425.475L158.002 408.721Z" fill="url(#paint9_linear_292_833)"/>
</g>
<path fill-rule="evenodd" clip-rule="evenodd" d="M174.462 573.756C209.768 505.702 211.591 417.052 243.145 391.1C274.711 365.147 340.893 390.986 363.799 418.044C386.706 445.103 343.299 491.383 380.571 553.457C358.784 577.448 232.364 613.565 174.462 573.756Z" fill="url(#paint10_linear_292_833)"/>
<path fill-rule="evenodd" clip-rule="evenodd" d="M328.018 310.27C311.025 310.27 298.637 324.388 301.054 343.55C302.771 357.13 321.141 371.269 339.318 378.045C355.018 383.899 355.102 362.48 355.102 343.194C355.102 323.907 344.998 310.27 328.018 310.27Z" fill="url(#paint11_linear_292_833)"/>
<path fill-rule="evenodd" clip-rule="evenodd" d="M351.613 508.054C368.051 541.169 450.719 590.893 487.99 578.556C525.262 566.22 575.232 434.031 575.232 434.031C588.335 422.208 586.668 410.588 575.125 410.229C575.125 410.229 585.679 386.833 578.818 385.857C569.05 384.464 563.035 411.805 563.035 411.805C563.035 411.805 556.293 395.192 552.934 403.136C550.873 407.999 558.782 423.072 558.782 423.072C558.782 423.072 503.082 512.839 470.051 511.637C437.008 510.437 377.675 422.736 360.57 415.867C342.25 408.507 340.058 484.786 351.613 508.054Z" fill="url(#paint12_linear_292_833)"/>
<mask id="mask3_292_833" style="mask-type:luminance" maskUnits="userSpaceOnUse" x="344" y="385" width="241" height="196">
<path d="M351.613 508.054C368.051 541.169 450.719 590.893 487.99 578.556C525.262 566.22 575.232 434.031 575.232 434.031C588.335 422.208 586.668 410.588 575.125 410.229C575.125 410.229 585.679 386.833 578.818 385.857C569.05 384.464 563.035 411.805 563.035 411.805C563.035 411.805 556.293 395.192 552.934 403.136C550.873 407.999 558.782 423.072 558.782 423.072C558.782 423.072 503.082 512.839 470.051 511.637C437.008 510.437 377.675 422.736 360.57 415.867C342.25 408.507 340.058 484.786 351.613 508.054Z" fill="white"/>
</mask>
<g mask="url(#mask3_292_833)">
<path fill-rule="evenodd" clip-rule="evenodd" d="M431.469 471.356C427.8 472.675 424.167 474.027 420.963 476.318C418.461 478.108 416.758 480.584 415.639 483.444C413.506 488.926 412.875 495.731 414.721 501.381C417.437 509.677 423.548 517.479 421.404 526.806C418.771 538.309 405.609 539.52 398.259 546.993C394.197 551.132 389.659 559.599 383.572 560.665C378.569 561.543 373.328 557.965 369.528 555.197C359.975 548.253 351.72 539.331 344.954 529.689C328.897 506.793 324.799 477.135 325.836 449.765C326.312 437.161 327.694 423.92 332.78 412.241C334.805 407.59 337.473 403.2 340.856 399.413C361.726 376.092 395.758 395.22 409.289 416.759C416.901 428.884 420.784 442.351 424.823 455.939L431.469 471.356Z" fill="url(#paint13_linear_292_833)"/>
</g>
<path fill-rule="evenodd" clip-rule="evenodd" d="M333.459 332.66C343.047 334.437 355.186 331.793 361.273 323.789C363.512 320.84 365.335 317.243 365.43 313.473C365.621 306.671 359.605 300.71 353.149 299.729C354.674 291.85 345.882 283.893 338.378 284.948C331.172 285.959 325.109 292.115 322.238 298.518C319.76 298.151 317.878 296.793 315.091 296.942C301.452 297.667 290.791 309.343 285.514 321.038C280.821 331.445 280.63 345.279 290.529 352.72C288.551 355.242 288.169 358.962 287.765 362.018C286.943 368.167 287.646 374.593 291.458 379.709C299.105 389.968 315.555 391.384 324.525 382.268C327.586 379.165 329.766 375.216 331.041 371.075C337.235 371.159 341.916 363.209 340.808 357.701C340.141 354.376 337.866 352.333 335.007 350.788C339.891 348.297 340.784 341.642 338.617 337.089C337.878 335.52 336.603 333.736 334.936 333.045L333.459 332.66Z" fill="url(#paint14_linear_292_833)"/>
<defs>
<linearGradient id="paint0_linear_292_833" x1="91.1366" y1="371.431" x2="245.196" y2="634.777" gradientUnits="userSpaceOnUse">
<stop stop-color="#F9ECDB"/>
<stop offset="0.61" stop-color="#FAE1C1"/>
<stop offset="0.82" stop-color="#FBC785"/>
<stop offset="1" stop-color="#FDAC46"/>
</linearGradient>
<linearGradient id="paint1_linear_292_833" x1="660.506" y1="238.547" x2="636.026" y2="296.844" gradientUnits="userSpaceOnUse">
<stop stop-color="#FFD9AA"/>
<stop offset="0.6" stop-color="#FFCF92"/>
<stop offset="0.81" stop-color="#FFB65B"/>
<stop offset="1" stop-color="#FF9D22"/>
</linearGradient>
<linearGradient id="paint2_linear_292_833" x1="528.35" y1="382.01" x2="547.625" y2="482.798" gradientUnits="userSpaceOnUse">
<stop stop-color="#FFC378"/>
<stop offset="0.48" stop-color="#FDB458"/>
<stop offset="1" stop-color="#F98A00"/>
</linearGradient>
<linearGradient id="paint3_linear_292_833" x1="521.372" y1="286.204" x2="512.231" y2="502.539" gradientUnits="userSpaceOnUse">
<stop stop-color="#FFDAAB"/>
<stop offset="0.56" stop-color="#FFCD8F"/>
<stop offset="1" stop-color="#FF9D23"/>
</linearGradient>
<linearGradient id="paint4_linear_292_833" x1="584.825" y1="377.751" x2="577.173" y2="426.401" gradientUnits="userSpaceOnUse">
<stop stop-color="#F9B662"/>
<stop offset="0.53" stop-color="#E91B22"/>
<stop offset="1" stop-color="#E30007"/>
</linearGradient>
<linearGradient id="paint5_linear_292_833" x1="378.914" y1="154.53" x2="473.483" y2="469.464" gradientUnits="userSpaceOnUse">
<stop stop-color="#FCDCB4"/>
<stop offset="0.55" stop-color="#F7C88E"/>
<stop offset="1" stop-color="#E30007"/>
</linearGradient>
<linearGradient id="paint6_linear_292_833" x1="327.813" y1="234.483" x2="318.181" y2="332.801" gradientUnits="userSpaceOnUse">
<stop stop-color="#8C2024"/>
<stop offset="0.49" stop-color="#5F0C0F"/>
<stop offset="1" stop-color="#510507"/>
</linearGradient>
<linearGradient id="paint7_linear_292_833" x1="357.538" y1="213.945" x2="360.274" y2="246.655" gradientUnits="userSpaceOnUse">
<stop stop-color="#FBD09A"/>
<stop offset="0.64" stop-color="#FC868A"/>
<stop offset="0.84" stop-color="#FD5056"/>
<stop offset="1" stop-color="#FF121A"/>
</linearGradient>
<linearGradient id="paint8_linear_292_833" x1="292.015" y1="278.94" x2="95.8529" y2="589.889" gradientUnits="userSpaceOnUse">
<stop stop-color="#FAD5A6"/>
<stop offset="0.17" stop-color="#FAD2A0"/>
<stop offset="0.36" stop-color="#FBCB8F"/>
<stop offset="1" stop-color="#C1272C"/>
</linearGradient>
<linearGradient id="paint9_linear_292_833" x1="233.679" y1="356.061" x2="179.443" y2="500.574" gradientUnits="userSpaceOnUse">
<stop stop-color="#8C2024"/>
<stop offset="0.6" stop-color="#821B1E"/>
<stop offset="0.81" stop-color="#6A1013"/>
<stop offset="1" stop-color="#510507"/>
</linearGradient>
<linearGradient id="paint10_linear_292_833" x1="222.753" y1="404.32" x2="330.545" y2="617.241" gradientUnits="userSpaceOnUse">
<stop stop-color="#8C2024"/>
<stop offset="0.53" stop-color="#7F1A1D"/>
<stop offset="1" stop-color="#510507"/>
</linearGradient>
<linearGradient id="paint11_linear_292_833" x1="347.868" y1="315.689" x2="313.843" y2="385.866" gradientUnits="userSpaceOnUse">
<stop stop-color="#FBD09A"/>
<stop offset="0.64" stop-color="#FC868A"/>
<stop offset="0.84" stop-color="#FD5056"/>
<stop offset="1" stop-color="#FF121A"/>
</linearGradient>
<linearGradient id="paint12_linear_292_833" x1="465.866" y1="424.041" x2="401.773" y2="652.213" gradientUnits="userSpaceOnUse">
<stop stop-color="#FAD5A6"/>
<stop offset="0.54" stop-color="#FB888C"/>
<stop offset="1" stop-color="#C1272C"/>
</linearGradient>
<linearGradient id="paint13_linear_292_833" x1="381.617" y1="414.214" x2="369.232" y2="569.882" gradientUnits="userSpaceOnUse">
<stop stop-color="#8C2024"/>
<stop offset="0.47" stop-color="#7C191C"/>
<stop offset="1" stop-color="#510507"/>
</linearGradient>
<linearGradient id="paint14_linear_292_833" x1="336.704" y1="371.626" x2="310.639" y2="297.03" gradientUnits="userSpaceOnUse">
<stop/>
<stop offset="0.54" stop-color="#111111"/>
<stop offset="1" stop-color="#4D4D4D"/>
</linearGradient>
</defs>
</svg>
