<svg width="60" height="60" viewBox="0 0 60 60" fill="none" xmlns="http://www.w3.org/2000/svg">
<path opacity="0.3" fill-rule="evenodd" clip-rule="evenodd" d="M0 30V37C0 49.7025 10.2975 60 23 60H30H37C49.7025 60 60 49.7025 60 37V30V23C60 10.2975 49.7025 0 37 0H30H23C10.2975 0 0 10.2975 0 23V30Z" fill="#FF9066"/>
<path d="M13.7084 38.9167V19.0833C13.7084 18.5197 13.9323 17.9792 14.3308 17.5807C14.7293 17.1822 15.2698 16.9583 15.8334 16.9583H44.1667C44.7303 16.9583 45.2708 17.1822 45.6693 17.5807C46.0678 17.9792 46.2917 18.5197 46.2917 19.0833V38.9167C46.2917 39.4802 46.0678 40.0207 45.6693 40.4193C45.2708 40.8178 44.7303 41.0417 44.1667 41.0417H15.8334C15.2698 41.0417 14.7293 40.8178 14.3308 40.4193C13.9323 40.0207 13.7084 39.4802 13.7084 38.9167Z" stroke="#FF9871" stroke-miterlimit="10" stroke-linecap="round" stroke-linejoin="round"/>
<path d="M34.9584 33.9583H43.4584" stroke="#FF9871" stroke-miterlimit="10" stroke-linecap="round" stroke-linejoin="round"/>
<path d="M34.9584 29.7083H43.4584" stroke="#FF9871" stroke-miterlimit="10" stroke-linecap="round" stroke-linejoin="round"/>
<path d="M34.9584 25.4583H43.4584" stroke="#FF9871" stroke-miterlimit="10" stroke-linecap="round" stroke-linejoin="round"/>
<path d="M32.1251 26.875V30.4167M18.6667 27.9942V31.6662C18.6669 31.9292 18.7402 32.187 18.8786 32.4107C19.017 32.6343 19.2149 32.8151 19.4502 32.9327L21.6502 34.0334C22.4835 34.4502 23.4024 34.6672 24.3341 34.6672C25.2658 34.6672 26.1847 34.4502 27.018 34.0334L29.2167 32.9327C29.4519 32.8151 29.6499 32.6343 29.7882 32.4107C29.9266 32.187 29.9999 31.9292 30.0001 31.6662V27.8383" stroke="#FF9871" stroke-miterlimit="10" stroke-linecap="round" stroke-linejoin="round"/>
<path d="M24.3334 23.3333L16.5417 26.875L24.3334 30.4167L32.1251 26.875L24.3334 23.3333ZM32.1251 30.4167L32.8334 32.5417L32.1251 33.25L31.4167 32.5417L32.1251 30.4167Z" stroke="#FF9871" stroke-miterlimit="10" stroke-linecap="round" stroke-linejoin="round"/>
</svg>
