<svg width="60" height="60" viewBox="0 0 60 60" fill="none" xmlns="http://www.w3.org/2000/svg">
<path opacity="0.21" fill-rule="evenodd" clip-rule="evenodd" d="M0 30V37C0 49.7025 10.2975 60 23 60H30H37C49.7025 60 60 49.7025 60 37V30V23C60 10.2975 49.7025 0 37 0H30H23C10.2975 0 0 10.2975 0 23V30Z" fill="#FEC53D"/>
<g clip-path="url(#clip0_1_245)">
<path d="M52.107 25.5602C51.8256 25.9917 51.7234 26.511 51.6376 27.0523C51.5325 27.7113 51.4216 28.344 51.1918 28.9644C50.9156 29.7078 50.4516 30.5361 49.6444 31.1844C48.8118 28.9024 47.5991 26.7821 46.0592 24.9159C47.0212 24.5261 47.9653 24.5321 48.7417 24.662C49.3865 24.7703 49.9824 24.9892 50.5981 25.2263C51.103 25.4219 51.5977 25.5919 52.1068 25.5602H52.107ZM42.739 16.0623L42.7386 16.0628L42.7393 16.0626C42.7081 16.5786 42.8756 17.0802 43.0683 17.5923C43.3023 18.2165 43.5183 18.8206 43.6252 19.4744C43.7532 20.262 43.7591 21.2206 43.3736 22.1968C41.5301 20.6378 39.4364 19.4111 37.1837 18.5701C37.8245 17.7447 38.6452 17.2714 39.3817 16.9902C39.9936 16.7572 40.6176 16.6449 41.2679 16.538C41.8014 16.4512 42.3136 16.3478 42.739 16.0623ZM50.6307 34.913C51.6488 35.0658 52.459 35.5473 53.0645 36.0508C53.5694 36.4715 53.9772 36.9633 54.3937 37.481C54.7343 37.9058 55.0791 38.3039 55.5353 38.5346H50.9387C50.9375 37.3208 50.8343 36.1092 50.6307 34.913ZM17.1461 16.0626L17.1465 16.063V16.0623C17.5719 16.3477 18.0841 16.451 18.6177 16.5382C19.2677 16.6447 19.8917 16.7572 20.5036 16.99C21.2401 17.2712 22.0608 17.7447 22.7015 18.57C20.4487 19.4109 18.3551 20.6376 16.5117 22.1968C16.1263 21.2206 16.1318 20.262 16.2602 19.4742C16.367 18.8204 16.583 18.2164 16.8168 17.5919C17.0096 17.08 17.1773 16.5786 17.1461 16.0626ZM7.77852 25.5606L7.77904 25.5608L7.77887 25.5604C8.28777 25.5919 8.78246 25.4219 9.28756 25.2265C9.90324 24.9892 10.499 24.7703 11.1436 24.662C11.9201 24.5323 12.8643 24.5263 13.8263 24.9161C12.2866 26.7824 11.074 28.9026 10.2412 31.1846C9.43385 30.5361 8.97001 29.708 8.69372 28.9644C8.46388 28.344 8.35312 27.7113 8.24791 27.0523C8.16211 26.511 8.06001 25.9919 7.77852 25.5606ZM4.35016 38.5348C4.80655 38.304 5.15096 37.9061 5.49191 37.4812C5.90791 36.9636 6.31611 36.4719 6.82085 36.0513C7.42648 35.5475 8.23612 35.0659 9.25445 34.9134C9.05092 36.1095 8.94811 37.321 8.94713 38.5348H4.35016ZM29.9428 12.5858V12.5864L29.9432 12.5858C30.1706 13.0488 30.5632 13.398 30.9825 13.744C31.4929 14.1658 31.9781 14.5795 32.3929 15.0913C32.8926 15.7092 33.3705 16.5366 33.5178 17.5784C32.337 17.3729 31.1411 17.2696 29.943 17.2696C28.7241 17.2696 27.53 17.3761 26.3678 17.5784C26.5152 16.5368 26.993 15.7092 27.4928 15.0916C27.9079 14.5795 28.3929 14.1658 28.9033 13.7437C29.3225 13.3981 29.7151 13.0488 29.9428 12.5858Z" fill="#FAB60F"/>
<path d="M25.6729 38.5394L27.2527 38.5348C27.4602 37.1819 27.0544 36.1403 25.7048 36.3889C24.5674 36.5983 23.3458 37.7439 22.6074 38.5348L24.6901 38.5255C24.9222 38.3708 25.3765 38.1942 25.563 38.3256C25.6327 38.3749 25.6693 38.4448 25.6729 38.5394Z" fill="#D52736"/>
<path d="M32.7772 38.5348H34.748C34.8417 36.1751 34.4668 33.7383 33.3849 31.6299C32.4007 29.7117 30.774 28.4078 28.668 28.0927C25.5935 27.6328 22.4914 28.9525 19.8687 30.8403C17.0132 32.8958 14.6562 35.6875 12.5963 38.535L15.1998 38.5311C17.5436 35.1628 22.9344 30.0491 26.9001 30.0157C28.1637 30.0052 29.4488 30.3059 30.3989 31.1653C31.0872 31.7881 31.9218 32.9974 31.8809 33.9789C31.8566 34.5608 31.3472 34.7394 30.8587 34.5589C30.4793 34.419 30.2113 34.0673 29.9458 33.6976C29.0829 32.4964 27.737 31.9085 26.2607 32.1134C24.4998 32.3575 22.3172 33.7438 20.9094 35.0044C19.6955 36.0919 18.581 37.2817 17.5297 38.535H20.3287C21.3547 37.2791 22.438 36.2081 23.8306 35.3287C24.2712 35.0505 24.8139 34.7561 25.3843 34.5571C26.8233 34.0557 28.2552 34.1828 28.8912 35.9993C29.141 36.7135 29.1777 37.3401 29.1049 38.488V38.535H31.0081L31.013 38.4759C31.0144 37.8473 31.0008 37.4236 31.0568 36.8005C31.1048 36.2635 31.2695 35.707 31.7614 35.641C32.8068 35.4188 32.7567 37.777 32.7772 38.535V38.5348Z" fill="#D52736"/>
<path d="M36.8202 38.5348H38.8074C38.9036 36.3455 38.7185 33.7517 38.0198 31.4869C37.8851 31.0469 37.7267 30.6148 37.5454 30.1924C37.1224 29.2136 36.5532 28.3277 35.8748 27.5089C35.1204 26.5994 34.2219 25.7815 33.2088 25.1374C32.9084 24.9462 32.5983 24.7712 32.2797 24.6131V24.6128C31.9598 24.4541 31.6313 24.3139 31.2957 24.1929L31.2943 24.1924C27.4246 22.7993 23.5108 23.79 20.2275 25.6007C19.5954 25.9502 18.9805 26.3308 18.3849 26.7411C17.811 27.1361 17.2539 27.5559 16.7154 27.9992L16.7142 28.0001C15.9463 28.6324 15.2199 29.3147 14.5395 30.0428C14.3875 30.2061 14.2374 30.3723 14.0915 30.5402C13.701 30.9892 13.0991 31.6185 13.2777 32.2691C13.4191 32.7851 14.0759 32.6329 14.3045 32.4554C14.6557 32.2644 15.0412 31.9616 15.3714 31.6785C15.818 31.295 16.2401 30.882 16.6826 30.4932C18.472 28.9203 20.3372 27.7075 22.1744 26.8866C22.5684 26.7103 22.969 26.5495 23.3752 26.4045C23.7656 26.2651 24.1615 26.1424 24.562 26.0365L24.5638 26.036C27.9824 25.1362 31.6971 25.7191 34.0756 28.5456C36.3671 31.2684 36.7851 34.913 36.8202 38.535V38.5348ZM12.164 35.4571C12.3776 35.255 12.5951 34.9914 12.8218 34.6997C13.139 34.2916 13.1709 33.8965 13.0454 33.6115C13.0001 33.5075 12.9319 33.4155 12.8461 33.3424C12.763 33.2718 12.6648 33.2221 12.5592 33.1972C12.3008 33.1373 11.9915 33.2312 11.7289 33.5551C11.4322 33.9211 11.0223 34.5473 10.9385 35.1013C10.9225 35.2002 10.9193 35.3008 10.9292 35.4006C10.9396 35.4926 10.9638 35.5802 11.0046 35.6601L11.0049 35.6608C11.0718 35.7909 11.1847 35.8594 11.335 35.8652C11.3663 35.8663 11.4003 35.8649 11.4364 35.8608C11.4715 35.857 11.5097 35.8498 11.5502 35.8403V35.8406L11.5523 35.8401C11.7548 35.7909 11.9572 35.6528 12.164 35.457V35.4571Z" fill="#D52736"/>
<path d="M41.791 38.5355L41.8051 38.5351H41.8122C42.0202 38.5467 42.381 38.4497 42.5892 38.0937C42.6306 38.0225 42.6663 37.9411 42.6932 37.8488C42.7209 37.7548 42.74 37.6481 42.748 37.5285L42.7495 37.5039C42.9075 31.9081 41.2171 27.2755 38.3472 24.1284C37.7949 23.5219 37.1917 22.9653 36.5442 22.4648C35.9037 21.97 35.221 21.5337 34.5044 21.1611H34.5043L34.4928 21.1555L34.4925 21.1552C32.0804 19.9053 29.3445 19.4253 26.6594 19.6561C25.6124 19.7458 24.5771 19.9429 23.5693 20.2445L23.5622 20.2467C20.8007 21.075 18.2309 22.7191 16.1366 24.8762C15.5256 25.5054 14.9573 26.1758 14.4355 26.8829C15.9042 25.5982 17.4798 24.4713 19.1279 23.5759C19.4953 23.376 19.8684 23.187 20.2467 23.0093C20.621 22.8335 21.0006 22.6696 21.385 22.5179L21.386 22.5175L21.3871 22.517C22.8431 21.9432 24.2785 21.5773 25.7142 21.4139C27.1497 21.2504 28.5863 21.2891 30.0453 21.5242C31.0835 21.6919 32.0968 21.9675 33.0098 22.3531C33.1867 22.4277 33.3611 22.5072 33.5317 22.5912C33.7002 22.674 33.866 22.7618 34.0285 22.8548H34.0286L34.0312 22.8562L34.0311 22.8564C37.2452 24.6409 39.4781 28.3024 40.4615 32.4366C40.8476 34.062 41.0375 35.729 41.027 37.4009V37.4012L41.0264 37.4494C41.0429 37.897 41.1942 38.2717 41.4535 38.4402C41.5017 38.4715 41.5541 38.4961 41.6097 38.5119H41.6101C41.6669 38.5283 41.7272 38.5365 41.791 38.5355Z" fill="#D52736"/>
<path d="M36.0441 19.8858C43.7718 22.4736 49.3565 29.8417 49.3891 38.5351H45.5653C45.8184 30.9412 42.5495 24.0866 36.0441 19.8858Z" fill="#FAB60F"/>
<path d="M13.6072 44.6326H12.0605L11.6775 45.9989H10.4449L12.076 40.7662H13.6377L15.3147 45.9989H14.0284L13.6072 44.6326ZM12.2366 43.7474H13.4234C13.1121 42.7251 12.9104 42.0239 12.8185 41.6434H12.8031L12.5582 42.6372L12.2366 43.7474ZM19.2884 44.6326H17.7415L17.3588 45.9989H16.1261L17.7568 40.7662H19.319L20.9959 45.9989H19.7096L19.2884 44.6326ZM17.9176 43.7474H19.1044C18.7931 42.7251 18.5914 42.0239 18.4995 41.6434H18.4843L18.2393 42.6372L17.9176 43.7474ZM22.1745 45.9757V40.8362C22.685 40.7585 23.2312 40.7197 23.813 40.7197C24.9132 40.7197 25.7031 40.9525 26.1818 41.4196C26.6602 41.8868 26.8989 42.4975 26.8989 43.2506C26.8989 44.1409 26.6271 44.8305 26.0822 45.3196C25.5372 45.8085 24.6964 46.0532 23.5605 46.0532C23.0348 46.0532 22.5727 46.0273 22.1745 45.9757ZM23.3613 41.6901V45.0983C23.4277 45.1138 23.5707 45.1215 23.7902 45.1215C24.3797 45.1215 24.8366 44.9637 25.1595 44.6493C25.4824 44.3347 25.6431 43.8846 25.6431 43.2971C25.6431 42.7588 25.4965 42.3486 25.2016 42.0666C24.9068 41.7845 24.4819 41.6434 23.928 41.6434C23.6957 41.6434 23.5068 41.6592 23.3613 41.6901ZM28.1696 40.7662H29.3564V42.7769H31.3855V40.7664H32.5724V45.9989H31.3855V43.8173H29.3564V45.9989H28.1696V40.7662ZM36.8751 44.6326H35.3284L34.9456 45.9989H33.7128L35.3439 40.7662H36.9058L38.5828 45.9989H37.2963L36.8751 44.6326ZM35.5046 43.7474H36.6914C36.3801 42.7251 36.1783 42.0239 36.0864 41.6434H36.0712L35.8261 42.6372L35.5046 43.7474ZM42.5563 44.6326H41.0095L40.6266 45.9989H39.3938L41.0247 40.7662H42.5868L44.2636 45.9989H42.9775L42.5563 44.6326ZM41.1856 43.7474H42.3724C42.0611 42.7251 41.8593 42.0239 41.7674 41.6434H41.7522L41.5071 42.6372L41.1856 43.7474ZM45.4423 45.9987V40.8362C45.8765 40.7585 46.4098 40.7197 47.0428 40.7197C47.8239 40.7197 48.3853 40.8504 48.7273 41.1117C49.0693 41.3731 49.2404 41.7471 49.2404 42.2335C49.2404 42.5235 49.1547 42.7848 48.9824 43.0191C48.8149 43.2498 48.5815 43.4227 48.3139 43.5145V43.5455C48.6354 43.6672 48.8677 43.9882 49.0107 44.5082C49.2735 45.4449 49.4163 45.9419 49.4393 45.9989H48.2295C48.1276 45.8048 48.005 45.3985 47.862 44.7799C47.7906 44.4695 47.6935 44.2521 47.5712 44.1279C47.4486 44.0036 47.252 43.9416 46.9815 43.9416H46.614V45.9989H45.4423V45.9987ZM46.614 41.6434V43.0797H47.104C47.4001 43.0797 47.6336 43.0112 47.8046 42.8753C47.9757 42.7395 48.0612 42.5571 48.0612 42.3267C48.0612 42.0964 47.9846 41.9177 47.8301 41.7924C47.6758 41.6667 47.4562 41.6047 47.173 41.6047C46.8948 41.6047 46.7085 41.6177 46.614 41.6434Z" fill="#D52736"/>
</g>
<defs>
<clipPath id="clip0_1_245">
<rect width="52" height="34" fill="white" transform="translate(4 12.231)"/>
</clipPath>
</defs>
</svg>
