<svg xmlns="http://www.w3.org/2000/svg" viewBox="0 0 64 64" id="expired">
  <defs>
    <linearGradient id="a" x1="4" x2="60" y1="32" y2="32" gradientUnits="userSpaceOnUse">
      <stop offset="0" stop-color="#ff0008" class="stopColor00c0ff svgShape"></stop>
      <stop offset="1" stop-color="#c1272c" class="stopColor5558ff svgShape"></stop>
    </linearGradient>
  </defs>
  <path fill="url(#a)" d="M55.61316,34.41089A26.06291,26.06291,0,1,0,34.411,55.61322,14.99227,14.99227,0,0,0,55.61316,34.41089ZM6,30a24.00074,24.00074,0,1,1,47.80365,2.88147,15.00693,15.00693,0,0,0-1.87915-1.17438C51.9693,31.15485,52,30.58875,52,30A22,22,0,1,0,30,52c.58875,0,1.15485-.0307,1.707-.07568a14.99742,14.99742,0,0,0,1.17444,1.87927A23.8242,23.8242,0,0,1,6,30Zm43.97614.86633A14.95912,14.95912,0,0,0,30.86633,49.976c-.285.01239-.571.024-.86633.024A20,20,0,1,1,50,30C50,30.29529,49.98853,30.5813,49.97614,30.86633ZM45,58A13,13,0,1,1,58,45,13.01474,13.01474,0,0,1,45,58Zm0-8.1665a3,3,0,1,0,3,3A3.00328,3.00328,0,0,0,45,49.8335Zm0,4a1,1,0,1,1,1-1A1.001,1.001,0,0,1,45,53.8335Zm2.56641-19.667H42.43359a.99884.99884,0,0,0-.998,1.05762l.7334,12.667a.9991.9991,0,0,0,.998.94239h3.666a.9991.9991,0,0,0,.998-.94239l.7334-12.667a.99884.99884,0,0,0-.998-1.05762Zm-1.67676,12.667h-1.7793l-.61719-10.667h3.01368ZM31,27.18427V17.12549a1,1,0,0,0-2,0V27.18427A2.99564,2.99564,0,0,0,27.18427,29H20a1,1,0,0,0,0,2h7.18433A2.99254,2.99254,0,1,0,31,27.18427ZM30,31a1,1,0,1,1,1-1A1.001,1.001,0,0,1,30,31ZM29,13V12a1,1,0,0,1,2,0v1a1,1,0,0,1-2,0ZM18.68652,17.272A.99989.99989,0,1,1,17.27246,18.686l-.707-.707a.99989.99989,0,0,1,1.41406-1.41406ZM14,30a.99974.99974,0,0,1-1,1H12a1,1,0,0,1,0-2h1A.99974.99974,0,0,1,14,30Zm4.68652,11.314a.99964.99964,0,0,1,0,1.41407l-.707.707A.99989.99989,0,1,1,16.56543,42.021l.707-.707A.99964.99964,0,0,1,18.68652,41.314Zm24.74805-24.749a.99962.99962,0,0,1,0,1.41406l-.707.707A.99989.99989,0,0,1,41.31348,17.272l.707-.707A.99964.99964,0,0,1,43.43457,16.56494Z"></path>
</svg>
