<svg width="60" height="60" viewBox="0 0 60 60" fill="none" xmlns="http://www.w3.org/2000/svg">
<path opacity="0.21" fill-rule="evenodd" clip-rule="evenodd" d="M0 30V37C0 49.7025 10.2975 60 23 60H30H37C49.7025 60 60 49.7025 60 37V30V23C60 10.2975 49.7025 0 37 0H30H23C10.2975 0 0 10.2975 0 23V30Z" fill="#4AD991"/>
<path d="M42.75 19.2115H17.25C15.2884 19.2115 13.6538 20.8461 13.6538 22.8077V37.1923C13.6538 39.1538 15.2884 40.7885 17.25 40.7885H42.75C44.7115 40.7885 46.3461 39.1538 46.3461 37.1923V22.8077C46.3461 20.8461 44.7115 19.2115 42.75 19.2115ZM22.4153 22.2192C24.1807 22.2192 25.5538 23.6577 25.5538 25.3577C25.5538 27.0577 24.1153 28.4962 22.4153 28.4962C20.7153 28.4962 19.2769 27.0577 19.2769 25.3577C19.2769 23.6577 20.65 22.2192 22.4153 22.2192ZM27.5807 35.8192C27.5807 36.9308 26.7307 37.7808 25.6192 37.7808H19.2115C18.1 37.7808 17.25 36.9308 17.25 35.8192V31.7C17.25 30.6538 17.8384 29.7385 18.8192 29.2808C19.0153 29.2808 20.3884 28.2346 21.5653 29.4769L22.4153 30.3923L23.2 29.5423C24.5077 28.1038 27.5807 29.3462 27.5807 31.7V35.8192ZM42.8153 34.3154H32.0269C31.6346 34.3154 31.373 34.0538 31.373 33.6615C31.373 33.2692 31.6346 33.0077 32.0269 33.0077H42.8153C43.2076 33.0077 43.4692 33.2692 43.4692 33.6615C43.4692 34.0538 43.1423 34.3154 42.8153 34.3154ZM42.8153 30.6538H32.0269C31.6346 30.6538 31.373 30.3923 31.373 30C31.373 29.6077 31.6346 29.3461 32.0269 29.3461H42.8153C43.2076 29.3461 43.4692 29.6077 43.4692 30C43.4692 30.3923 43.1423 30.6538 42.8153 30.6538ZM42.8153 26.9923H32.0269C31.6346 26.9923 31.373 26.7308 31.373 26.3385C31.373 25.9461 31.6346 25.6846 32.0269 25.6846H42.8153C43.2076 25.6846 43.4692 25.9461 43.4692 26.3385C43.4692 26.7308 43.1423 26.9923 42.8153 26.9923Z" fill="#4AD991"/>
<path d="M24.9 30.3269C24.6384 30.1962 24.3115 30.2615 24.1807 30.5231L22.9384 31.9615C22.6769 32.2231 22.2846 32.2885 21.9577 31.9615L20.65 30.5231C20.1923 30 19.6038 30.5885 19.4077 30.5885C18.95 30.7846 18.623 31.2423 18.623 31.7654V35.8846C18.623 36.2769 18.8846 36.5385 19.2769 36.5385H25.6846C26.0769 36.5385 26.3384 36.2769 26.3384 35.8846V31.7654C26.273 30.6539 25.0961 30.4577 24.9 30.3269ZM22.4154 27.1885C23.4615 27.1885 24.2461 26.3385 24.2461 25.3577C24.2461 24.3769 23.3961 23.5269 22.4154 23.5269C21.4346 23.5269 20.5846 24.3769 20.5846 25.3577C20.5846 26.3385 21.3692 27.1885 22.4154 27.1885Z" fill="#4AD991"/>
</svg>
