<svg xmlns="http://www.w3.org/2000/svg" viewBox="0 0 128 128" id="pending">
  <path fill="#2d4356" d="M64 0a64 64 0 1 0 64 64A64.072 64.072 0 0 0 64 0Zm0 124a60 60 0 1 1 60-60 60.073 60.073 0 0 1-60 60Z"></path>
  <path fill="#9387a2" d="M64 4a60 60 0 1 0 60 60A60.073 60.073 0 0 0 64 4ZM17 73a9 9 0 1 1 9-9 9.014 9.014 0 0 1-9 9Zm85 27.3a4.707 4.707 0 0 1-4.7 4.7H30.7a4.707 4.707 0 0 1-4.7-4.7v-2.6a4.707 4.707 0 0 1 4.7-4.7h2.36l18.03-21.87a1.087 1.087 0 0 1 .1-.11 9.799 9.799 0 0 0 0-14.04 1.086 1.086 0 0 1-.1-.11L33.06 35H30.7a4.707 4.707 0 0 1-4.7-4.7v-2.6a4.707 4.707 0 0 1 4.7-4.7h66.6a4.707 4.707 0 0 1 4.7 4.7v2.6a4.707 4.707 0 0 1-4.7 4.7h-2.36L76.91 56.87a1.086 1.086 0 0 1-.1.11 9.799 9.799 0 0 0 0 14.04 1.087 1.087 0 0 1 .1.11L94.94 93h2.36a4.707 4.707 0 0 1 4.7 4.7ZM30 64a9 9 0 1 1 9 9 9.014 9.014 0 0 1-9-9Zm66 0a9 9 0 1 1-9-9 9.014 9.014 0 0 1 9 9Zm13 9a9 9 0 1 1 9-9 9.014 9.014 0 0 1-9 9Z"></path>
  <path fill="#2d4356" d="M76.91 56.87 94.94 35h2.36a4.707 4.707 0 0 0 4.7-4.7v-2.6a4.707 4.707 0 0 0-4.7-4.7H30.7a4.707 4.707 0 0 0-4.7 4.7v2.6a4.707 4.707 0 0 0 4.7 4.7h2.36l18.03 21.87a1.086 1.086 0 0 0 .1.11 9.799 9.799 0 0 1 0 14.04 1.087 1.087 0 0 0-.1.11L33.06 93H30.7a4.707 4.707 0 0 0-4.7 4.7v2.6a4.707 4.707 0 0 0 4.7 4.7h66.6a4.707 4.707 0 0 0 4.7-4.7v-2.6a4.707 4.707 0 0 0-4.7-4.7h-2.36L76.91 71.13a1.087 1.087 0 0 0-.1-.11 9.799 9.799 0 0 1 0-14.04 1.086 1.086 0 0 0 .1-.11ZM30.7 31a.696.696 0 0 1-.7-.7v-2.6a.696.696 0 0 1 .7-.7h66.6a.696.696 0 0 1 .7.7v2.6a.696.696 0 0 1-.7.7Zm66.6 66a.696.696 0 0 1 .7.7v2.6a.696.696 0 0 1-.7.7H30.7a.696.696 0 0 1-.7-.7v-2.6a.696.696 0 0 1 .7-.7ZM73.87 73.73 89.76 93H38.24l15.89-19.27a13.785 13.785 0 0 0 0-19.46L38.24 35h51.52L73.87 54.27a13.785 13.785 0 0 0 0 19.46Z"></path>
  <rect width="68" height="4" x="30" y="97" fill="#fc785e" rx=".7" ry=".7"></rect>
  <rect width="68" height="4" x="30" y="27" fill="#fc785e" rx=".7" ry=".7"></rect>
  <path fill="#e1ebf4" d="M73.87 73.73 89.76 93H38.24l15.89-19.27a13.785 13.785 0 0 0 0-19.46L38.24 35h51.52L73.87 54.27a13.785 13.785 0 0 0 0 19.46Z"></path>
  <path fill="#2d4356" d="m66.42 57.2 12.13-14.94A1.995 1.995 0 0 0 77 39H51a1.995 1.995 0 0 0-1.55 3.26l12.66 15.58a4.521 4.521 0 0 0-.54 2.25 4.74 4.74 0 0 0 .68 2.52.79.79 0 0 1 .18.56.826.826 0 0 1-.18.57 4.99 4.99 0 0 0 0 5.03.826.826 0 0 1 .18.57.813.813 0 0 1-.18.57 4.74 4.74 0 0 0-.68 2.52 2.355 2.355 0 0 0 .04.28L50.48 85.7A1.997 1.997 0 0 0 52 89h24a1.997 1.997 0 0 0 1.52-3.3L65.71 71.92a.6.6 0 0 1 .04-.06 5.01 5.01 0 0 0 0-5.04.977.977 0 0 1 0-1.13 5.01 5.01 0 0 0 0-5.04.961.961 0 0 1 0-1.12 4.857 4.857 0 0 0 .67-2.33ZM71.65 85h-15.3L64 76.07ZM64 53.83 55.2 43h17.6Z"></path>
  <path fill="#d68751" d="M72.8 43 64 53.83 55.2 43h17.6zM71.65 85h-15.3L64 76.07 71.65 85z"></path>
  <path fill="#2d4356" d="M17 55a9 9 0 1 0 9 9 9.014 9.014 0 0 0-9-9Zm0 14a5 5 0 1 1 5-5 5.002 5.002 0 0 1-5 5Z"></path>
  <circle cx="17" cy="64" r="5" fill="#e1ebf4"></circle>
  <circle cx="17" cy="64" r="2" fill="#2d4356"></circle>
  <path fill="#2d4356" d="M39 55a9 9 0 1 0 9 9 9.014 9.014 0 0 0-9-9Zm0 14a5 5 0 1 1 5-5 5.002 5.002 0 0 1-5 5Z"></path>
  <circle cx="39" cy="64" r="5" fill="#e1ebf4"></circle>
  <path fill="#2d4356" d="M87 55a9 9 0 1 0 9 9 9.014 9.014 0 0 0-9-9Zm0 14a5 5 0 1 1 5-5 5.002 5.002 0 0 1-5 5Z"></path>
  <circle cx="87" cy="64" r="5" fill="#e1ebf4"></circle>
  <path fill="#2d4356" d="M109 55a9 9 0 1 0 9 9 9.014 9.014 0 0 0-9-9Zm0 14a5 5 0 1 1 5-5 5.002 5.002 0 0 1-5 5Z"></path>
  <circle cx="109" cy="64" r="5" fill="#e1ebf4"></circle>
  <path fill="#5f5968" d="M124 64A60 60 0 0 1 4 64c0-.33 0-.67.01-1a59.998 59.998 0 0 0 119.98 0c.01.33.01.67.01 1Z" opacity=".5"></path>
  <path fill="#dccef2" d="M124 64c0 .33 0 .67-.01 1A59.998 59.998 0 0 0 4.01 65C4 64.67 4 64.33 4 64a60 60 0 0 1 120 0Z" opacity=".2"></path>
  <path fill="#9fa5aa" d="m89.76 35-1.65 2H39.89l-1.65-2h51.52zM89.76 93H38.24l1.65-2h48.22l1.65 2z" opacity=".5"></path>
  <path fill="#a54b3f" d="M98 98.3v2a.696.696 0 0 1-.7.7H30.7a.696.696 0 0 1-.7-.7v-2a.696.696 0 0 0 .7.7h66.6a.696.696 0 0 0 .7-.7Z" opacity=".5"></path>
  <path fill="#f9dbd7" d="M98 27.7v2a.696.696 0 0 0-.7-.7H30.7a.696.696 0 0 0-.7.7v-2a.696.696 0 0 1 .7-.7h66.6a.696.696 0 0 1 .7.7Z" opacity=".3"></path>
  <path fill="#9fa5aa" d="M22 64a5 5 0 0 1-10 0 4.622 4.622 0 0 1 .1-.99 5.004 5.004 0 0 0 9.8 0 4.622 4.622 0 0 1 .1.99zm22 0a5 5 0 0 1-10 0 4.622 4.622 0 0 1 .1-.99 5.004 5.004 0 0 0 9.8 0 4.622 4.622 0 0 1 .1.99zm48 0a5 5 0 0 1-10 0 4.622 4.622 0 0 1 .1-.99 5.004 5.004 0 0 0 9.8 0 4.622 4.622 0 0 1 .1.99zm22 0a5 5 0 0 1-10 0 4.622 4.622 0 0 1 .1-.99 5.004 5.004 0 0 0 9.8 0 4.622 4.622 0 0 1 .1.99z" opacity=".5"></path>
  <circle cx="39" cy="64" r="2" fill="#2d4356"></circle>
  <path fill="#2d4356" d="M64 0a64 64 0 1 0 64 64A64.072 64.072 0 0 0 64 0Zm0 124a60 60 0 1 1 60-60 60.073 60.073 0 0 1-60 60Z"></path>
  <path fill="#9387a2" d="M64 4a60 60 0 1 0 60 60A60.073 60.073 0 0 0 64 4ZM17 73a9 9 0 1 1 9-9 9.014 9.014 0 0 1-9 9Zm85 27.3a4.707 4.707 0 0 1-4.7 4.7H30.7a4.707 4.707 0 0 1-4.7-4.7v-2.6a4.707 4.707 0 0 1 4.7-4.7h2.36l18.03-21.87a1.087 1.087 0 0 1 .1-.11 9.799 9.799 0 0 0 0-14.04 1.086 1.086 0 0 1-.1-.11L33.06 35H30.7a4.707 4.707 0 0 1-4.7-4.7v-2.6a4.707 4.707 0 0 1 4.7-4.7h66.6a4.707 4.707 0 0 1 4.7 4.7v2.6a4.707 4.707 0 0 1-4.7 4.7h-2.36L76.91 56.87a1.086 1.086 0 0 1-.1.11 9.799 9.799 0 0 0 0 14.04 1.087 1.087 0 0 1 .1.11L94.94 93h2.36a4.707 4.707 0 0 1 4.7 4.7ZM30 64a9 9 0 1 1 9 9 9.014 9.014 0 0 1-9-9Zm66 0a9 9 0 1 1-9-9 9.014 9.014 0 0 1 9 9Zm13 9a9 9 0 1 1 9-9 9.014 9.014 0 0 1-9 9Z"></path>
  <path fill="#2d4356" d="M76.91 56.87 94.94 35h2.36a4.707 4.707 0 0 0 4.7-4.7v-2.6a4.707 4.707 0 0 0-4.7-4.7H30.7a4.707 4.707 0 0 0-4.7 4.7v2.6a4.707 4.707 0 0 0 4.7 4.7h2.36l18.03 21.87a1.086 1.086 0 0 0 .1.11 9.799 9.799 0 0 1 0 14.04 1.087 1.087 0 0 0-.1.11L33.06 93H30.7a4.707 4.707 0 0 0-4.7 4.7v2.6a4.707 4.707 0 0 0 4.7 4.7h66.6a4.707 4.707 0 0 0 4.7-4.7v-2.6a4.707 4.707 0 0 0-4.7-4.7h-2.36L76.91 71.13a1.087 1.087 0 0 0-.1-.11 9.799 9.799 0 0 1 0-14.04 1.086 1.086 0 0 0 .1-.11ZM30.7 31a.696.696 0 0 1-.7-.7v-2.6a.696.696 0 0 1 .7-.7h66.6a.696.696 0 0 1 .7.7v2.6a.696.696 0 0 1-.7.7Zm66.6 66a.696.696 0 0 1 .7.7v2.6a.696.696 0 0 1-.7.7H30.7a.696.696 0 0 1-.7-.7v-2.6a.696.696 0 0 1 .7-.7ZM73.87 73.73 89.76 93H38.24l15.89-19.27a13.785 13.785 0 0 0 0-19.46L38.24 35h51.52L73.87 54.27a13.785 13.785 0 0 0 0 19.46Z"></path>
  <rect width="68" height="4" x="30" y="97" fill="#fc785e" rx=".7" ry=".7"></rect>
  <rect width="68" height="4" x="30" y="27" fill="#fc785e" rx=".7" ry=".7"></rect>
  <path fill="#e1ebf4" d="M73.87 73.73 89.76 93H38.24l15.89-19.27a13.785 13.785 0 0 0 0-19.46L38.24 35h51.52L73.87 54.27a13.785 13.785 0 0 0 0 19.46Z"></path>
  <path fill="#2d4356" d="m66.42 57.2 12.13-14.94A1.995 1.995 0 0 0 77 39H51a1.995 1.995 0 0 0-1.55 3.26l12.66 15.58a4.521 4.521 0 0 0-.54 2.25 4.74 4.74 0 0 0 .68 2.52.79.79 0 0 1 .18.56.826.826 0 0 1-.18.57 4.99 4.99 0 0 0 0 5.03.826.826 0 0 1 .18.57.813.813 0 0 1-.18.57 4.74 4.74 0 0 0-.68 2.52 2.355 2.355 0 0 0 .04.28L50.48 85.7A1.997 1.997 0 0 0 52 89h24a1.997 1.997 0 0 0 1.52-3.3L65.71 71.92a.6.6 0 0 1 .04-.06 5.01 5.01 0 0 0 0-5.04.977.977 0 0 1 0-1.13 5.01 5.01 0 0 0 0-5.04.961.961 0 0 1 0-1.12 4.857 4.857 0 0 0 .67-2.33ZM71.65 85h-15.3L64 76.07ZM64 53.83 55.2 43h17.6Z"></path>
  <path fill="#d68751" d="M72.8 43 64 53.83 55.2 43h17.6zM71.65 85h-15.3L64 76.07 71.65 85z"></path>
  <path fill="#2d4356" d="M17 55a9 9 0 1 0 9 9 9.014 9.014 0 0 0-9-9Zm0 14a5 5 0 1 1 5-5 5.002 5.002 0 0 1-5 5Z"></path>
  <circle cx="17" cy="64" r="5" fill="#e1ebf4"></circle>
  <circle cx="17" cy="64" r="2" fill="#2d4356"></circle>
  <path fill="#2d4356" d="M39 55a9 9 0 1 0 9 9 9.014 9.014 0 0 0-9-9Zm0 14a5 5 0 1 1 5-5 5.002 5.002 0 0 1-5 5Z"></path>
  <circle cx="39" cy="64" r="5" fill="#e1ebf4"></circle>
  <path fill="#2d4356" d="M87 55a9 9 0 1 0 9 9 9.014 9.014 0 0 0-9-9Zm0 14a5 5 0 1 1 5-5 5.002 5.002 0 0 1-5 5Z"></path>
  <circle cx="87" cy="64" r="5" fill="#e1ebf4"></circle>
  <path fill="#2d4356" d="M109 55a9 9 0 1 0 9 9 9.014 9.014 0 0 0-9-9Zm0 14a5 5 0 1 1 5-5 5.002 5.002 0 0 1-5 5Z"></path>
  <circle cx="109" cy="64" r="5" fill="#e1ebf4"></circle>
  <path fill="#5f5968" d="M124 64A60 60 0 0 1 4 64c0-.33 0-.67.01-1a59.998 59.998 0 0 0 119.98 0c.01.33.01.67.01 1Z" opacity=".5"></path>
  <path fill="#dccef2" d="M124 64c0 .33 0 .67-.01 1A59.998 59.998 0 0 0 4.01 65C4 64.67 4 64.33 4 64a60 60 0 0 1 120 0Z" opacity=".2"></path>
  <path fill="#9fa5aa" d="m89.76 35-1.65 2H39.89l-1.65-2h51.52zM89.76 93H38.24l1.65-2h48.22l1.65 2z" opacity=".5"></path>
  <path fill="#a54b3f" d="M98 98.3v2a.696.696 0 0 1-.7.7H30.7a.696.696 0 0 1-.7-.7v-2a.696.696 0 0 0 .7.7h66.6a.696.696 0 0 0 .7-.7Z" opacity=".5"></path>
  <path fill="#f9dbd7" d="M98 27.7v2a.696.696 0 0 0-.7-.7H30.7a.696.696 0 0 0-.7.7v-2a.696.696 0 0 1 .7-.7h66.6a.696.696 0 0 1 .7.7Z" opacity=".3"></path>
  <path fill="#9fa5aa" d="M22 64a5 5 0 0 1-10 0 4.622 4.622 0 0 1 .1-.99 5.004 5.004 0 0 0 9.8 0 4.622 4.622 0 0 1 .1.99zm22 0a5 5 0 0 1-10 0 4.622 4.622 0 0 1 .1-.99 5.004 5.004 0 0 0 9.8 0 4.622 4.622 0 0 1 .1.99zm48 0a5 5 0 0 1-10 0 4.622 4.622 0 0 1 .1-.99 5.004 5.004 0 0 0 9.8 0 4.622 4.622 0 0 1 .1.99zm22 0a5 5 0 0 1-10 0 4.622 4.622 0 0 1 .1-.99 5.004 5.004 0 0 0 9.8 0 4.622 4.622 0 0 1 .1.99z" opacity=".5"></path>
  <circle cx="39" cy="64" r="2" fill="#2d4356"></circle>
</svg>
