<?xml version="1.0" encoding="utf-8"?>
<!-- Generator: Adobe Illustrator 28.0.0, SVG Export Plug-In . SVG Version: 6.00 Build 0)  -->
<svg version="1.1" id="Layer_1" xmlns="http://www.w3.org/2000/svg" xmlns:xlink="http://www.w3.org/1999/xlink" x="0px" y="0px"
	 viewBox="0 0 1152 648" style="enable-background:new 0 0 1152 648;" xml:space="preserve">
<style type="text/css">
	.st0{fill:#BF2026;}
	.st1{fill:#F68721;}
	.st2{fill:#F2672A;}
</style>
<g>
	<polygon class="st0" points="322.87,392.23 309.27,360.01 296.72,360.01 282.88,392.23 270.78,360.01 252.62,360.01 277.3,418.91 
		287.54,418.91 303.02,384.62 318.13,418.91 328.29,418.91 353.46,360.01 335.5,360.01 	"/>
	<path class="st0" d="M409.01,418.17h17.96l-25.64-58.16h-19.38l-25.72,58.16h17.97l4.82-11.8h25.26L409.01,418.17z M383.12,396.26
		l8.59-21.24l8.53,21.24H383.12z"/>
	<path class="st0" d="M505.19,390.13c0-3.42-0.44-6.57-1.31-9.48c-0.89-2.91-2.08-5.47-3.57-7.69c-1.5-2.2-3.24-4.11-5.23-5.74
		c-1.15-0.97-2.45-1.91-3.9-2.75c-1.46-0.84-3.21-1.63-5.29-2.3c-2.07-0.68-4.4-1.22-6.98-1.6c-2.6-0.38-5.7-0.56-9.34-0.56H445.4
		v58.16h31.39c7.49,0,13.32-1.63,17.5-4.92c2.94-2.24,5.49-5.16,7.66-8.78C504.11,400.87,505.19,396.08,505.19,390.13z
		 M482.33,402.85c-3.36,2.18-7.33,3.27-11.93,3.27h-7.46v-34.46h7.46c2.64,0,5.21,0.46,7.75,1.35c2.52,0.89,4.7,2.65,6.5,5.3
		c1.8,2.65,2.71,6.33,2.71,11.06C487.36,396.17,485.67,400.66,482.33,402.85z"/>
	<polygon class="st0" points="568.55,381.37 542.16,381.37 542.16,360.01 524.61,360.01 524.61,418.17 542.16,418.17 542.16,395.47 
		568.55,395.47 568.55,418.17 586.06,418.17 586.06,360.01 568.55,360.01 	"/>
	<polygon class="st0" points="672.89,392.23 659.28,360.01 646.73,360.01 632.89,392.23 620.79,360.01 602.62,360.01 627.3,418.91 
		637.55,418.91 653.02,384.62 668.14,418.91 678.29,418.91 703.48,360.01 685.52,360.01 	"/>
	<path class="st0" d="M751.31,360.01h-19.38l-25.72,58.16h17.96l4.82-11.8h25.26l4.76,11.8h17.95L751.31,360.01z M733.11,396.26
		l8.6-21.24l8.51,21.24H733.11z"/>
	<polygon class="st0" points="841.05,392.23 810.97,360.01 795.4,360.01 795.4,418.17 812.77,418.17 812.77,385.76 842.95,418.17 
		858.56,418.17 858.56,360.01 841.05,360.01 	"/>
	<rect x="881.84" y="360.01" class="st0" width="17.54" height="58.16"/>
	<polygon class="st0" points="356.06,482.74 361.47,482.74 361.47,465.53 375.49,465.53 375.49,460.76 361.47,460.76 361.47,449.72 
		376.14,449.72 376.14,444.96 356.06,444.96 	"/>
	<path class="st0" d="M410.51,444.31c-5.63,0-10.08,1.86-13.37,5.58c-3.21,3.57-4.82,8.23-4.82,13.96c0,5.85,1.59,10.54,4.76,14.07
		c3.29,3.64,7.76,5.46,13.42,5.46c5.67,0,10.14-1.82,13.43-5.46c3.17-3.54,4.76-8.23,4.76-14.07c0-5.74-1.59-10.39-4.76-13.96
		C420.61,446.17,416.14,444.31,410.51,444.31z M419.98,474.08c-2.24,3.03-5.4,4.55-9.47,4.55c-4.08,0-7.24-1.52-9.47-4.55
		c-1.98-2.7-2.98-6.11-2.98-10.23c0-4.11,1.03-7.54,3.09-10.28c2.27-2.99,5.39-4.49,9.36-4.49c3.97,0,7.09,1.5,9.37,4.49
		c2.06,2.74,3.08,6.17,3.08,10.28C422.96,467.96,421.96,471.37,419.98,474.08z"/>
	<path class="st0" d="M471.47,466.39c0,8.15-3.08,12.23-9.26,12.23c-6.17,0-9.26-4.08-9.26-12.23v-21.43h-5.41v22.14
		c0,5.27,1.27,9.3,3.82,12.1c2.55,2.8,6.16,4.19,10.85,4.19c4.69,0,8.31-1.4,10.85-4.19c2.54-2.8,3.81-6.83,3.81-12.1v-22.14h-5.41
		V466.39z"/>
	<polygon class="st0" points="521.67,475.38 521.56,475.38 504.89,444.96 497.53,444.96 497.53,482.74 502.94,482.74 502.94,451.67 
		503.05,451.67 520.16,482.74 527.08,482.74 527.08,444.96 521.67,444.96 	"/>
	<path class="st0" d="M573.46,449.89c-3.75-3.28-8.52-4.93-14.29-4.93h-11.15v37.78h11.15c6.31,0,11.25-1.64,14.8-4.93
		c3.56-3.28,5.33-8.05,5.33-14.29C579.31,457.86,577.36,453.31,573.46,449.89z M559.12,477.98h-5.68v-28.25h6.33
		c4.01,0,7.29,1.23,9.85,3.68c2.63,2.6,3.95,6.04,3.95,10.34C573.57,473.23,568.75,477.98,559.12,477.98z"/>
	<path class="st0" d="M609.35,444.96l-16.13,37.78h5.68l3.84-9.52h18.51l3.85,9.52h5.9l-15.97-37.78H609.35z M604.48,468.77
		l7.53-18.73l7.52,18.73H604.48z"/>
	<polygon class="st0" points="643.07,449.72 654.81,449.72 654.81,482.74 660.22,482.74 660.22,449.72 671.97,449.72 671.97,444.96 
		643.07,444.96 	"/>
	<rect x="688.21" y="444.96" class="st0" width="5.41" height="37.78"/>
	<path class="st0" d="M730.32,444.31c-5.63,0-10.08,1.86-13.36,5.58c-3.22,3.57-4.82,8.23-4.82,13.96c0,5.85,1.59,10.54,4.76,14.07
		c3.28,3.64,7.76,5.46,13.42,5.46c5.66,0,10.14-1.82,13.43-5.46c3.17-3.54,4.77-8.23,4.77-14.07c0-5.74-1.59-10.39-4.77-13.96
		C740.42,446.17,735.95,444.31,730.32,444.31z M739.79,474.08c-2.24,3.03-5.4,4.55-9.48,4.55c-4.07,0-7.23-1.52-9.47-4.55
		c-1.98-2.7-2.97-6.11-2.97-10.23c0-4.11,1.03-7.54,3.09-10.28c2.27-2.99,5.39-4.49,9.36-4.49c3.97,0,7.09,1.5,9.36,4.49
		c2.06,2.74,3.09,6.17,3.09,10.28C742.77,467.96,741.77,471.37,739.79,474.08z"/>
	<polygon class="st0" points="790.53,475.38 790.42,475.38 773.75,444.96 766.39,444.96 766.39,482.74 771.8,482.74 771.8,451.67 
		771.91,451.67 789.01,482.74 795.94,482.74 795.94,444.96 790.53,444.96 	"/>
</g>
<g>
	<polygon class="st1" points="252.17,191.23 570,347.69 372.53,206.57 	"/>
	<polygon class="st1" points="779.52,206.32 582.44,348.01 899.83,190.64 	"/>
</g>
<g>
	<polygon class="st2" points="371.68,177.67 569.85,345.8 467.32,203.6 	"/>
	<polygon class="st2" points="684.68,203.72 582.14,345.94 780.32,177.81 	"/>
</g>
<polygon class="st0" points="694.04,164.61 617.28,200.85 603.11,258.22 576.07,205.92 576,205.8 575.94,205.92 548.91,258.22 
	534.72,200.85 457.96,164.61 576,348.23 "/>
<g>
</g>
<g>
</g>
<g>
</g>
<g>
</g>
<g>
</g>
<g>
</g>
</svg>
