<svg width="60" height="60" viewBox="0 0 60 60" fill="none" xmlns="http://www.w3.org/2000/svg">
<path opacity="0.21" fill-rule="evenodd" clip-rule="evenodd" d="M0 30V37C0 49.7025 10.2975 60 23 60H30H37C49.7025 60 60 49.7025 60 37V30V23C60 10.2975 49.7025 0 37 0H30H23C10.2975 0 0 10.2975 0 23V30Z" fill="#8280FF"/>
<path d="M41.3333 25.75L31.4167 15.8333H22.9167C21.7895 15.8333 20.7085 16.2811 19.9115 17.0781C19.1144 17.8752 18.6667 18.9562 18.6667 20.0833V39.9167C18.6667 41.0438 19.1144 42.1248 19.9115 42.9219C20.7085 43.7189 21.7895 44.1667 22.9167 44.1667H37.0833C38.2105 44.1667 39.2915 43.7189 40.0885 42.9219C40.8856 42.1248 41.3333 41.0438 41.3333 39.9167V25.75Z" fill="#B2B1FF"/>
<path d="M41.3333 25.75H34.25C33.4986 25.75 32.7779 25.4515 32.2465 24.9201C31.7152 24.3888 31.4167 23.6681 31.4167 22.9167V15.8333L41.3333 25.75ZM34.25 38.5H25.75C25.3743 38.5 25.014 38.3507 24.7483 38.0851C24.4826 37.8194 24.3333 37.4591 24.3333 37.0833C24.3333 36.7076 24.4826 36.3473 24.7483 36.0816C25.014 35.8159 25.3743 35.6667 25.75 35.6667H34.25C34.6257 35.6667 34.9861 35.8159 35.2517 36.0816C35.5174 36.3473 35.6667 36.7076 35.6667 37.0833C35.6667 37.4591 35.5174 37.8194 35.2517 38.0851C34.9861 38.3507 34.6257 38.5 34.25 38.5ZM34.25 32.8333H25.75C25.3743 32.8333 25.014 32.6841 24.7483 32.4184C24.4826 32.1527 24.3333 31.7924 24.3333 31.4167C24.3333 31.0409 24.4826 30.6806 24.7483 30.4149C25.014 30.1493 25.3743 30 25.75 30H34.25C34.6257 30 34.9861 30.1493 35.2517 30.4149C35.5174 30.6806 35.6667 31.0409 35.6667 31.4167C35.6667 31.7924 35.5174 32.1527 35.2517 32.4184C34.9861 32.6841 34.6257 32.8333 34.25 32.8333ZM27.1667 27.1667H25.75C25.3743 27.1667 25.014 27.0174 24.7483 26.7517C24.4826 26.4861 24.3333 26.1257 24.3333 25.75C24.3333 25.3743 24.4826 25.0139 24.7483 24.7483C25.014 24.4826 25.3743 24.3333 25.75 24.3333H27.1667C27.5424 24.3333 27.9027 24.4826 28.1684 24.7483C28.4341 25.0139 28.5833 25.3743 28.5833 25.75C28.5833 26.1257 28.4341 26.4861 28.1684 26.7517C27.9027 27.0174 27.5424 27.1667 27.1667 27.1667Z" fill="#6563FF"/>
</svg>
