<svg width="60" height="60" viewBox="0 0 60 60" fill="none" xmlns="http://www.w3.org/2000/svg">
<path opacity="0.21" fill-rule="evenodd" clip-rule="evenodd" d="M0 30V37C0 49.7025 10.2975 60 23 60H30H37C49.7025 60 60 49.7025 60 37V30V23C60 10.2975 49.7025 0 37 0H30H23C10.2975 0 0 10.2975 0 23V30Z" fill="#8280FF"/>
<path d="M30 16.1875C27.2682 16.1875 24.5976 16.9976 22.3262 18.5153C20.0547 20.0331 18.2844 22.1903 17.2389 24.7142C16.1935 27.2381 15.92 30.0153 16.4529 32.6947C16.9859 35.374 18.3014 37.8352 20.2331 39.7669C22.1648 41.6986 24.626 43.0141 27.3053 43.5471C29.9847 44.0801 32.7619 43.8065 35.2858 42.7611C37.8097 41.7157 39.9669 39.9453 41.4847 37.6738C43.0024 35.4024 43.8125 32.7319 43.8125 30C43.8088 26.3378 42.3523 22.8268 39.7628 20.2372C37.1732 17.6477 33.6622 16.1913 30 16.1875ZM35.0008 35.0008C34.8016 35.1998 34.5316 35.3116 34.25 35.3116C33.9684 35.3116 33.6984 35.1998 33.4992 35.0008L29.2492 30.7508C29.0499 30.5518 28.9378 30.2817 28.9375 30V21.5C28.9375 21.2182 29.0494 20.948 29.2487 20.7487C29.448 20.5494 29.7182 20.4375 30 20.4375C30.2818 20.4375 30.552 20.5494 30.7513 20.7487C30.9506 20.948 31.0625 21.2182 31.0625 21.5V29.5608L35.0008 33.4992C35.1998 33.6984 35.3116 33.9684 35.3116 34.25C35.3116 34.5316 35.1998 34.8016 35.0008 35.0008Z" fill="#6563FF"/>
</svg>
