<svg xmlns="http://www.w3.org/2000/svg" enable-background="new 0 0 504 504" viewBox="0 0 504 504" id="revoked">
  <path d="M502.682,52.234c-1.639-1.482-4.168-1.355-5.649,0.284l-30.815,34.075L357.251,64.137l51.957-57.454
	c1.481-1.639,1.354-4.168-0.284-5.649c-1.636-1.481-4.168-1.355-5.649,0.284l-40.912,45.24H61.536
	c-29.692,0-53.849,24.156-53.849,53.849v261.496c0,19.46,10.515,37.28,27.189,46.79L1.033,446.117
	c-1.481,1.639-1.354,4.168,0.284,5.649c0.766,0.692,1.725,1.033,2.682,1.033c1.091,0,2.179-0.444,2.968-1.317l42.495-46.991
	l108.967,22.457l-63.637,70.37c-1.481,1.639-1.354,4.168,0.284,5.649c0.765,0.692,1.725,1.033,2.682,1.033
	c1.091,0,2.179-0.444,2.968-1.317l78.614-86.932h248.105c29.692,0,53.849-24.156,53.849-53.849V100.406
	c0-5.435-0.806-10.776-2.392-15.911l24.066-26.612C504.448,56.244,504.321,53.715,502.682,52.234z M459.991,93.479l-82.504,91.234
	L268.52,162.256l82.504-91.234L459.991,93.479z M259.823,314.826l-108.967-22.457l111.437-123.228l108.967,22.457L259.823,314.826z
	 M71.72,367.951H49.668c2.367-10.981,7.44-30.076,13.29-36.139c5.941-6.156,14.273-9.076,18.354-10.208
	c5.184,7.162,12.496,11.945,20.707,12.842L71.72,367.951z M109.731,325.919c-1.603,0.449-3.247,0.689-4.904,0.689
	c-12.942,0-23.472-13.755-23.472-30.661s10.529-30.661,23.472-30.661c12.941,0,23.471,13.755,23.471,30.661
	c0,3.899-0.561,7.684-1.654,11.269L109.731,325.919z M104.827,257.286c-17.354,0-31.472,17.344-31.472,38.661
	c0,6.707,1.399,13.019,3.855,18.522c-5.284,1.671-13.607,5.154-20.01,11.788c-3.242,3.36-6.067,9.096-8.419,15.374V232.417h112.09
	v36.95l-24.586,27.187c0.003-0.203,0.012-0.404,0.012-0.607C136.298,274.63,122.18,257.286,104.827,257.286z M279.413,138.283
	H72.753c-12.292,0-22.293-10.001-22.293-22.294c0-12.292,10.001-22.293,22.293-22.293h246.981L279.413,138.283z M15.687,361.902
	V100.406c0-25.281,20.567-45.849,45.849-45.849h293.592l-28.159,31.139H72.753c-16.704,0-30.293,13.589-30.293,30.293
	s13.589,30.294,30.293,30.294h199.426L168.872,260.52v-32.103c0-2.209-1.791-4-4-4H44.782c-2.209,0-4,1.791-4,4v143.534
	c0,2.209,1.791,4,4,4h19.703l-24.091,26.64C25.298,394.737,15.687,379.07,15.687,361.902z M55.689,397.606l88.941-98.351
	l108.967,22.457l-88.941,98.351L55.689,397.606z M473.293,100.406v261.496c0,25.281-20.567,45.849-45.849,45.849h-240.87
	l96.066-106.23h51.58c2.209,0,4-1.791,4-4s-1.791-4-4-4h-44.346l42.869-47.404h83.449c2.209,0,4-1.791,4-4s-1.791-4-4-4h-76.214
	L472.445,91.634C473.002,94.508,473.293,97.439,473.293,100.406z M333.684,332.941c-11.97,0-21.708,9.738-21.708,21.709
	c0,11.97,9.738,21.708,21.708,21.708h74.226c11.97,0,21.708-9.738,21.708-21.708c0-11.971-9.738-21.709-21.708-21.709H333.684z
	 M421.618,354.65c0,7.559-6.149,13.708-13.708,13.708h-74.226c-7.559,0-13.708-6.149-13.708-13.708
	c0-7.56,6.149-13.709,13.708-13.709h74.226C415.469,340.941,421.618,347.09,421.618,354.65z M353.429,297.521c0-2.209,1.791-4,4-4
	h58.764c2.209,0,4,1.791,4,4s-1.791,4-4,4h-58.764C355.22,301.521,353.429,299.73,353.429,297.521z" fill="#c1272c" class="color000000 svgShape"></path>
</svg>
