<svg width="826" height="826" viewBox="0 0 826 826" fill="none" xmlns="http://www.w3.org/2000/svg">
<path fill-rule="evenodd" clip-rule="evenodd" d="M410.49 190.429C559.277 315.905 715.458 267.818 732.971 412.231C751.573 565.733 701.813 473.349 581.969 569.124C407.066 708.912 144.43 660.139 134.704 410.772C128.23 244.643 292.281 90.7463 410.49 190.429Z" fill="#C1272C"/>
<path d="M94.8415 526.958C96.1528 524.052 96.9379 521.087 98.4846 518.638C100.229 516.252 103.163 514.41 106.197 515.49C119.782 519.89 133.443 519.79 140.795 508.567C140.745 508.737 140.725 508.916 140.736 509.093C140.738 509.258 140.936 509.32 141.1 509.319C141.268 509.645 141.895 509.9 142.226 510.06C143.943 510.828 145.881 510.903 147.751 510.683C150.111 510.293 152.029 508.726 154.085 507.585C155.411 506.79 156.811 506.124 158.264 505.597C158.298 506.361 158.218 507.125 158.029 507.866C157.991 507.854 157.95 507.851 157.911 507.858C157.871 507.864 157.833 507.879 157.8 507.901C156.152 510.155 152.712 510.853 149.842 512.498C147.393 513.677 145.379 515.54 143.665 517.663C142.041 519.558 140.716 521.69 139.734 523.984C137.43 528.971 136.808 534.496 136.545 539.918C136.524 541.002 135.972 546.822 137.8 545.881C139.55 543.987 140.474 541.612 142.397 540.373C147.965 536.429 154.92 535.82 159.853 530.965C164.816 525.847 168.408 515.983 162.265 510.475C161.356 509.694 160.313 509.084 159.188 508.673C158.99 508.61 158.858 508.513 158.66 508.449C158.94 507.421 159.06 506.357 159.016 505.292C160.183 504.93 161.399 504.749 162.622 504.755C164.428 504.733 166.303 505.006 168.072 504.59C171.118 503.929 173.517 501.371 174.368 498.372C174.619 497.417 174.999 496.23 174.985 495.08C176.51 496.278 178.166 497.407 180.045 498.008C182.747 498.763 186.126 498.426 187.172 495.326C187.805 493.348 187.32 491.285 187.132 489.317C186.952 488.006 187.355 486.063 187.599 484.451C187.731 485.184 188.007 485.884 188.412 486.51C188.914 487.325 189.482 488.106 190.05 488.888C189.773 493.161 189.732 497.891 192.077 501.639C186.253 500.757 184.954 510.101 176.819 505.536C175.763 505.089 172.912 502.923 172.542 504.931C172.451 505.556 172.721 506.078 172.924 506.634C173.466 508.01 174.213 509.296 175.138 510.45C177.938 513.799 182.763 516.269 187.117 515.099C188.656 514.719 190.086 513.487 191.029 512.753C192.153 511.953 193.399 511.339 194.719 510.936C197.401 510.049 200.287 509.718 202.667 508.244C203.215 507.885 203.717 507.46 204.162 506.978C204.55 509.174 206.054 511.291 209.296 513.254C213.692 515.533 218.042 516.761 221.567 520.397C222.165 520.915 223.368 522.608 224.167 523.518C225.166 524.655 225.882 524.121 226.096 522.772C227.609 517.532 227.867 511.781 225.441 506.753C224.326 504.106 222.515 501.074 221.797 498.718C221.344 496.556 221.389 494.88 221.525 492.579C221.814 489.266 222.805 486.052 224.432 483.151C225.011 482.027 225.884 480.998 226.594 479.972C228.205 482.777 228.512 486.419 227.922 489.283C226.987 493.4 224.675 497.73 226.434 501.946C227.149 503.973 228.517 505.828 230.692 506.361C231.879 506.74 233.192 506.724 234.347 507.203C235.008 507.439 235.64 507.751 236.23 508.132L236.527 508.227C236.584 508.211 236.637 508.183 236.683 508.146C236.729 508.108 236.767 508.062 236.794 508.009C236.821 507.956 236.837 507.899 236.841 507.84C236.845 507.78 236.836 507.721 236.816 507.665C237.334 507.068 237.706 505.224 237.931 504.86C240.569 497.636 244.589 493.252 241.858 484.745C241.523 483.662 241.115 482.603 240.637 481.575C241.391 481.434 242.111 481.228 242.864 481.088C246.957 480.053 251.295 480.296 254.803 482.453C255.959 483.096 257.515 484.03 258.214 484.744C258.645 485.1 258.882 485.721 259.442 485.846C260.524 485.701 259.62 484.267 259.547 483.644C258.587 480.339 258.088 477.126 258.246 473.905C258.275 468.19 261.398 463.029 262.973 457.427C264.095 452.552 263.112 447.277 260.825 442.837C257.632 436.8 250.526 433.11 243.855 435.555L242.811 436.094C240.375 432.97 236.737 430.88 233.01 429.578C230.635 428.655 228.134 428.291 225.726 427.466C221.438 425.876 216.417 423.507 212.377 426.249C212.441 426.051 212.538 425.919 212.569 425.82C215.144 421.519 215.278 416.328 215.745 411.462C215.838 409.094 216.24 406.748 216.941 404.484C216.945 404.493 216.951 404.501 216.959 404.507C216.966 404.514 216.975 404.518 216.984 404.521C216.993 404.524 217.003 404.525 217.013 404.524C217.022 404.524 217.032 404.521 217.04 404.516C218.581 404.3 220.037 405.202 221.814 405.443C223.419 405.599 225.034 405.624 226.642 405.516C227.014 406.398 227.386 407.281 227.954 408.062C229.29 409.852 231.111 411.144 233.159 412.071C237.749 414.085 239.835 410.118 241.832 406.777C242.574 405.651 243.846 404.913 245.114 403.847C246.383 402.794 247.428 401.497 248.187 400.032C249.408 397.752 249.833 394.889 248.818 392.438C248.076 390.838 246.36 390.235 244.778 389.729C242.339 389.003 239.872 388.704 237.496 387.781C235.781 387.177 234.226 386.244 232.414 385.773C231.03 385.33 229.52 385.447 228.109 385.595C226.6 385.927 225.063 386.111 223.518 386.144C224.392 382.389 225.098 378.308 227.333 375.752C229.307 373.331 232.251 372.31 235.238 372.175C235.682 372.122 236.132 372.173 236.553 372.323C237.829 374.639 239.434 376.952 242.071 377.741C243.952 378.506 246.312 378.116 247.74 376.72C247.976 376.427 248.171 376.105 248.32 375.76C249.449 379.556 251.839 381.629 255.974 381.316C257.123 381.302 258.237 381.059 259.384 380.881C259.843 380.809 260.367 380.705 260.726 380.437C261.508 379.87 261.591 378.588 260.764 378.105C259.575 377.561 258.137 378.137 256.924 378.349C255.582 378.628 254.732 379.065 253.71 378.683C252.125 378.013 250.724 376.256 249.33 374.993C251.458 374.474 253.349 373.335 254.575 371.546C255.935 370.018 257.47 369.31 259.534 368.826C261.466 368.408 263.56 367.824 264.888 366.232C266.761 363.614 266.777 359.476 264.286 357.207C260.567 353.837 256.158 355.861 256.285 360.917C256.271 362.494 256.493 364.528 256.145 365.616C255.636 367.034 254.402 368.166 252.804 369.072C251.465 369.679 250.094 370.386 249.188 371.513C249.176 367.802 246.592 365.994 243.474 363.47C240.973 361.459 238.097 359.964 235.013 359.074C233.761 358.728 232.342 358.219 231.035 358.728C229.631 359.368 229.947 361.106 230.715 362.115C232.323 364.756 235.496 366.425 235.661 369.149C235.831 369.639 235.578 370.431 235.651 371.054C232.464 370.961 229.129 372.184 226.991 374.607C224.04 377.697 223.534 382.006 222.596 385.958C220.036 386.121 217.41 386.153 214.852 386.479C214.753 386.448 214.688 386.482 214.591 386.614C214.509 386.574 214.416 386.563 214.328 386.584C214.249 386.614 214.178 386.663 214.124 386.728C214.07 386.792 214.033 386.869 214.018 386.952C214.002 387.035 214.008 387.121 214.036 387.2C214.063 387.28 214.11 387.351 214.173 387.407C216.643 388.659 218.79 390.465 220.445 392.685C218.758 397.106 216.675 401.401 215.581 406.012C214.492 410.952 214.921 416.431 213.595 420.914C213.031 423.187 211.999 424.71 211.04 426.857C211.137 426.724 211.008 426.956 210.879 427.187C210.598 427.47 210.378 427.808 210.235 428.18L210.136 428.148C205.091 426.535 200.047 430.373 195.763 431.837C194.357 432.314 192.816 432.53 191.669 432.708C190.422 432.855 186.909 432.93 189.394 434.706C191.91 436.384 194.686 437.762 197.139 439.637C198.533 440.901 199.837 442.79 200.779 444.618C203.304 449.677 205.245 455.369 208.846 459.792C208.814 459.899 208.815 460.014 208.85 460.12C210.363 463.058 208.989 466.162 206.019 467.774C204.649 468.48 202.516 468.671 200.853 469.61C196.099 467.599 190.918 471.012 188.339 474.984C187.344 476.901 187.01 479.139 186.937 481.241C186.933 481.888 186.963 482.534 187.026 483.178C186.916 483.032 186.77 482.917 186.602 482.844C186.434 482.771 186.25 482.743 186.068 482.763C184.363 482.98 183.244 485.457 182.563 486.221C181.657 487.349 180.152 487.794 178.775 488.007C180.466 483.914 181.129 478.947 181.223 475.924C181.211 474.939 181.46 473.82 181.318 472.902C181.38 472.874 181.435 472.832 181.48 472.781C181.525 472.729 181.558 472.668 181.577 472.603C181.668 471.978 183.102 471.074 183.713 470.015C184.453 468.726 184.664 467.212 184.646 465.734C184.806 462.678 183.556 459.77 181.655 457.363C179.85 454.823 176.584 453.615 174.303 452.394C171.162 450.626 168.608 448.555 167.418 445.285C166.894 443.793 166.695 442.205 166.836 440.629C167.172 438.556 167.034 435.239 164.084 435.769C159.942 438.151 160.095 448.068 161.164 452.226C162.686 458.546 165.304 465.871 164.291 471.762C163.92 473.606 163.114 474.929 161.801 474.945C161.702 474.913 161.636 474.947 161.538 474.915C160.187 471.812 158.443 468.91 156.635 466.041C156.501 465.781 156.335 465.618 156.2 465.357C156.869 464.385 157.408 463.33 157.804 462.218C158.333 460.801 158.711 459.333 158.933 457.837C159.291 457.569 159.085 456.849 159.048 456.456C158.86 454.487 157.853 452.693 157.075 450.863C155.793 448.055 155.721 444.87 154.502 441.863C152.886 438.565 149.667 435.846 145.952 435.53C145.656 435.495 145.357 435.51 145.066 435.573C144.693 433.141 144.532 430.682 144.583 428.222C146.349 427.642 147.943 426.408 148.578 424.593C148.943 423.788 149.113 422.907 149.072 422.024C151.102 421.474 153.292 420.593 154.154 418.579C154.344 417.986 154.534 417.392 154.658 416.833C155.156 417.805 155.786 418.703 156.53 419.503C159.218 421.835 161.899 418.059 163.121 415.942C164.859 413.063 168.642 410.784 169.779 407.059C171.048 403.431 170.633 398.936 167.904 396.046C166.074 394.098 163.562 392.749 160.927 392.124C158.93 391.821 156.888 392.073 155.024 392.853L154.959 392.887C153.43 391.917 151.686 391.34 149.881 391.208C147.25 390.911 144.801 392.09 142.281 392.811C141.571 392.971 140.839 393.013 140.115 392.934L140.016 392.903C139.935 392.862 139.842 392.852 139.753 392.873C138.675 390.62 137.596 388.367 136.649 386.047C135.838 384.152 134.993 382.191 134.213 380.198C135.357 380.353 136.521 380.26 137.625 379.926C139.425 379.412 140.816 377.621 140.661 375.718C140.548 374.537 139.943 373.362 139.998 372.508C139.957 371.785 140.574 371.22 141.119 370.195C141.952 368.444 141.074 366.418 140.102 364.854C138.462 362.312 135.162 361.038 132.148 361.6C131.066 361.745 130.308 361.557 129.352 361.306C131.235 359.509 131.789 356.416 133.211 354.526C133.533 354.118 133.891 353.74 134.281 353.397C134.256 353.486 134.258 353.581 134.289 353.669C134.319 353.757 134.376 353.833 134.451 353.887C134.462 354.038 134.509 354.184 134.588 354.313C135.362 357.231 136.738 359.955 138.626 362.31C140.063 364.296 142.118 365.88 144.648 365.981C145.997 366.194 147.238 365.555 148.314 364.918C149.52 364.214 150.76 363.575 152.001 362.936C153.572 362.145 155.343 361.839 157.089 362.057C158.834 362.276 160.475 363.009 161.803 364.164C162.697 364.777 163.402 365.984 164.365 366.891C164.423 366.988 164.512 367.063 164.618 367.102C164.723 367.141 164.84 367.143 164.947 367.107C165.054 367.071 165.145 367 165.206 366.905C165.267 366.81 165.293 366.697 165.281 366.584C165.212 366.29 164.913 366.031 164.778 365.77C163.073 363.261 161.818 360.025 159.913 357.289C157.44 353.773 154.736 350.127 151.062 347.807C148.615 346.424 145.719 345.934 142.927 345.968C141.539 345.99 140.175 346.333 138.941 346.969C137.707 347.605 136.636 348.517 135.812 349.634C135.279 350.42 134.858 351.276 134.562 352.178C134.444 352.226 134.342 352.307 134.269 352.412C131.892 354.05 131.397 356.618 130.177 358.899C129.534 360.056 129.05 360.719 128.104 361.288L127.843 361.423C126.262 355.629 124.942 349.7 125.365 343.948C125.384 343.649 125.424 343.353 125.485 343.06C125.944 342.989 126.437 342.983 126.862 342.846C128.532 342.399 129.499 340.909 129.972 339.262C130.733 337.052 130.8 334.456 129.364 332.47C129.13 332.178 128.762 331.624 128.398 331.398C128.441 331.282 128.462 331.16 128.46 331.036C129.618 331.679 130.761 331.173 131.704 330.439L131.738 330.504C132.169 330.86 132.824 330.688 133.319 330.846C133.78 330.939 135.063 331.186 135.461 331.477C136.717 332.151 137.253 333.031 138.088 334.171C138.824 335.109 139.796 335.834 140.905 336.271C143.351 337.49 146.306 337.454 147.612 339.507C148.649 341.038 149.335 343.493 150.702 345.184C151.437 346.107 152.262 346.955 153.163 347.716C153.628 348.137 154.192 348.59 154.817 348.681C156.428 348.76 155.521 347.162 155.248 346.312C154.843 345.117 154.618 343.869 154.579 342.608C154.488 340.507 155.681 338.654 155.619 336.289C155.728 334.416 155.148 332.65 154.242 331.051C153.137 328.872 151.54 326.98 149.577 325.525C148.162 324.494 146.54 323.784 144.823 323.442C143.107 323.1 141.336 323.134 139.634 323.543C137.999 324.056 136.632 325.091 135.296 326.026C133.31 327.463 131.338 330.049 129.633 330.266C129.01 330.339 129.008 330.175 128.446 329.887C128.875 327.352 129.174 324.886 129.603 322.352C129.909 320.541 130.835 318.33 132.06 316.377C132.159 316.409 132.225 316.375 132.355 316.308C133.594 315.505 135.31 316.272 137.221 316.774C140.643 317.324 144.224 317.379 144.17 312.946C144.154 311.632 144.035 309.959 144.286 309.003C144.694 307.389 145.23 305.543 144.39 303.912C145.756 302.877 147.157 301.907 148.591 301.003C151.027 299.525 153.609 298.305 156.298 297.363C157.289 297.843 158.282 298.488 159.368 298.672C161.475 299.073 164.231 298.81 166.007 299.051C168.148 299.518 169.574 300.682 171.622 301.61C173.766 302.405 176.157 301.917 178.391 301.922C179.114 301.881 180.692 302.059 180.021 300.917C176.056 296.269 171.664 291.593 165.921 289.265C161.796 287.673 154.972 288.215 153.72 293.321C153.738 294.799 154.341 295.81 154.553 297.022C153.841 297.29 153.143 297.595 152.462 297.935C149.431 299.359 146.566 301.113 143.918 303.163C143.081 301.859 141.787 300.791 140.529 299.952C139.138 299.017 137.781 298.146 136.165 297.575C132.998 296.398 129.474 298.379 126.992 299.493C126.003 299.976 124.916 300.225 123.815 300.221C122.929 300.265 121.942 300.112 121.226 300.646C119.99 301.614 120.275 303.45 120.914 304.69C121.351 305.539 122.277 306.053 123.135 306.436C124.488 306.978 126.785 306.786 127.772 306.938C129.023 307.12 129.849 307.603 130.451 308.45C130.702 308.839 130.822 309.297 130.795 309.759C130.74 310.614 130.487 311.405 130.497 312.226C130.378 313.279 130.818 314.291 131.419 315.137C131.472 315.252 131.552 315.353 131.652 315.43C130.266 317.549 129.21 319.829 128.781 322.362C128.29 325.258 127.996 328.053 127.438 330.819C127.308 330.729 127.163 330.664 127.009 330.627C123.674 329.124 119.189 324.909 114.981 327.325C112.956 328.203 111.472 330.455 110.04 331.523C107.239 333.462 104.193 334.123 101.087 332.584C98.5785 331.563 97.9101 333.312 99.2158 335.365C100.253 336.896 101.713 338.127 103.301 339.126C104.559 339.964 105.914 340.67 107.491 340.684C109.886 340.524 112.468 339.441 114.377 339.78C116.187 340.086 117.873 340.952 119.588 341.555C121.105 342.095 122.818 342.534 124.494 342.58C124.433 342.872 124.393 343.169 124.373 343.468C124.146 346.394 124.411 349.313 124.841 352.231C125.334 354.951 125.926 357.703 126.648 360.388C125.757 360.007 124.777 359.883 123.819 360.028C121.983 360.313 120.486 361.415 118.786 362.126C117.217 362.768 114.79 363.028 113.724 361.76C112.559 360.46 111.716 358.664 109.936 358.095C108.552 357.816 108.739 359.62 108.783 360.506C108.834 362.049 109.574 363.485 110.346 364.822C111.591 367.014 113.322 368.892 115.405 370.311C117.955 372.054 120.362 372.878 122.942 374.359C124.996 375.779 127.02 377.462 129.395 378.385C130.573 378.898 131.799 379.291 133.055 379.556C133.665 381.06 134.308 382.628 134.917 384.131C137.113 389.195 139.569 393.961 141.338 398.997C138.178 398.477 135.021 398.121 132.045 396.515C130.393 395.714 128.246 394.591 126.488 393.266C124.433 391.681 120.316 388.021 118.987 392.174C118.488 394.414 119.371 396.768 120.641 398.592C122.41 400.902 124.703 403.107 125.783 405.524C127.894 411.706 129.296 418.915 134.511 423.745C136.57 425.657 138.829 427.798 141.755 428.025C142.362 428.044 142.969 427.982 143.559 427.839C143.53 428.102 143.565 428.331 143.536 428.595C143.562 430.738 143.753 432.877 144.106 434.992C139.251 435.511 134.689 438.522 131.614 442.172C128.103 446.808 125.289 451.931 123.26 457.381C122.627 459.359 121.371 461.41 122.021 463.473C122.6 465.239 124.553 466.463 126.426 466.572C127.839 466.588 129.144 465.915 130.486 465.472C130.998 465.278 131.523 465.118 132.056 464.993C131.838 466.547 131.235 468.022 130.301 469.284C128.913 471.238 126.77 473.333 125.586 475.844C124.389 475.13 123.051 474.686 121.665 474.544C120.279 474.402 118.878 474.565 117.562 475.022C114.128 476.213 111.801 479.23 109.201 481.56C107.611 483.123 106.473 484.122 104.245 484.445C102.245 484.732 98.9234 484.378 96.6011 485.162C94.2115 485.815 92.5599 487.74 91.6007 489.886C88.9385 495.14 89.21 501.279 89.2798 507.026C89.5099 512.442 89.445 517.927 90.2981 523.27C90.7156 525.203 90.9079 527.5 91.7169 529.231C93.2851 531.313 94.4221 527.587 94.8415 526.958ZM221.379 393.854C222.318 395.518 223.029 397.217 223.838 398.948C224.611 400.449 225.417 401.851 226.06 403.42C226.278 403.862 226.459 404.321 226.602 404.793C224.83 404.88 222.859 404.904 221.443 404.56C220.224 404.279 219.002 403.67 217.722 403.751C217.668 403.77 217.61 403.771 217.557 403.753C218.601 400.489 220.04 397.187 221.379 393.854ZM211.554 428.655C211.769 428.529 211.93 428.328 212.007 428.091C215.414 424.601 219.998 426.286 224.948 428.197C228.05 429.408 231.372 429.761 234.377 431.104C236.852 432.059 239.698 433.897 241.394 435.584C241.76 435.933 242.094 436.314 242.393 436.722C239.688 438.364 237.581 440.852 236.7 443.95C234.794 449.228 234.867 455.303 233.647 460.31C232.607 463.903 230.971 467.141 228.475 469.832C226.566 466.768 223.547 467.001 220.341 467.993C218.737 468.406 217.524 468.618 216.725 467.708C216.126 467.027 215.754 466.144 215.282 465.23C215.514 465.359 215.81 465.454 216.042 465.581C217.69 466.054 219.494 465.868 221.132 465.519C224.764 464.392 226.322 460.201 226.807 456.813C226.884 455.85 226.726 454.882 226.345 453.994C226.986 453.894 227.605 453.687 228.177 453.381C229.384 452.676 230.29 451.549 231.13 450.454C233.132 447.605 233.58 443.987 232.751 440.615C230.99 433.509 225.117 431.249 218.349 431.101C216.049 430.965 213.574 430.009 211.164 429.021C211.457 428.788 211.489 428.689 211.554 428.655ZM203.386 470.038C205.055 469.591 206.759 469.209 208.058 468.043C209.479 466.796 210.383 465.064 210.594 463.185C210.625 462.655 210.575 462.124 210.443 461.61C210.608 461.772 210.776 461.934 210.975 462.162C210.281 464.502 210.082 467.001 209.947 469.466C209.898 470.813 209.979 472.093 210.553 473.366C210.587 473.432 210.522 473.465 210.555 473.532C211.768 476.046 214.358 478.346 215.63 480.334C217.076 483.141 215.903 486.637 214.092 488.892C212.118 491.314 209.645 493.249 207.273 495.379L207.173 495.183C206.767 494.428 206.224 493.755 205.572 493.2C203.115 490.996 199.728 490.676 197.374 488.832C196.314 488.057 195.837 486.65 196.45 485.755C196.515 485.722 196.547 485.623 196.612 485.59C196.97 485.323 197.362 485.121 197.72 484.854C200.556 483.145 203.616 480.907 204.166 477.485C204.359 475.779 204.305 474.054 204.005 472.364C203.841 471.578 203.635 470.801 203.386 470.038ZM142.515 490.582C142.803 490.486 143.099 490.416 143.399 490.374C144.351 490.297 144.844 490.455 145.801 490.706C148.208 491.531 150.79 493.175 153.462 494.193C153.396 494.227 153.396 494.227 153.365 494.325C152.669 496.501 151.076 497.9 148.653 498.488C146.687 498.839 145.225 500.172 144.161 501.794C143.877 502.185 143.618 502.594 143.388 503.019C143.609 502.326 143.896 501.6 144.117 500.908C144.63 498.978 144.717 496.96 144.374 494.993C144.094 493.485 143.385 491.95 142.515 490.582ZM131.465 470.419C132.531 468.961 133.004 467.313 133.245 465.537C133.834 465.398 134.457 465.325 134.981 465.22C138.032 464.887 140.57 465.645 142.892 467.587C144.651 469.077 146.703 470.334 149.035 470.37C151.889 470.138 154.267 468.5 155.948 466.312C158.192 469.864 160.337 473.386 161.864 477.472C162.711 479.597 163.261 481.627 163.845 483.722C163.314 484.008 162.706 484.119 162.108 484.038C160.99 483.953 159.339 483.152 157.987 482.774C153.736 481.578 149.244 482.158 145.122 483.456C143.095 484.17 140.945 485.609 139.338 485.858C139.152 485.857 138.965 485.87 138.781 485.897C135.459 485.544 132.094 484.304 130.187 481.404C129.285 480.134 128.61 478.664 127.415 477.628C127.15 477.434 126.885 477.24 126.586 476.981C127.805 474.699 129.754 472.869 131.465 470.418V470.419Z" fill="url(#paint0_linear_291_788)"/>
<path fill-rule="evenodd" clip-rule="evenodd" d="M155.916 557.574C156.648 562.757 159.085 568.084 162.424 573.234C166.716 579.851 172.356 586.241 176.734 591.683C180.584 596.569 184.655 601.217 188.88 605.7C193.122 610.195 197.568 614.471 202.202 618.58C208.361 624.073 214.877 629.152 221.707 633.784C237.806 644.647 256.34 653.304 278.214 658.972C278.759 659.096 279.324 659.111 279.875 659.018C280.426 658.924 280.953 658.722 281.426 658.424C281.9 658.127 282.31 657.739 282.633 657.282C282.956 656.826 283.187 656.311 283.311 655.766C283.435 655.221 283.451 654.656 283.357 654.105C283.263 653.554 283.061 653.027 282.764 652.553C282.466 652.08 282.078 651.67 281.622 651.347C281.166 651.023 280.65 650.793 280.105 650.669C258.794 646.411 240.361 639.331 224.467 629.523C217.632 625.33 211.168 620.557 205.149 615.259C200.643 611.263 196.392 606.988 192.423 602.458C188.471 597.922 184.753 593.187 181.282 588.273C177.415 582.723 172.322 576.213 168.659 569.512C166.326 565.236 164.639 560.893 164.4 556.746C164.285 555.625 163.731 554.595 162.859 553.882C161.987 553.168 160.868 552.829 159.746 552.939C158.625 553.048 157.592 553.597 156.874 554.466C156.157 555.335 155.812 556.453 155.917 557.575L155.916 557.574ZM281.736 150.34C285.263 147.561 289.232 145.404 293.422 143.682C299.981 140.984 307.051 139.294 313.814 137.902C329.487 134.715 345.755 133.986 361.496 136.374C377.254 138.766 392.432 144.255 405.941 153.275C417.219 160.915 427.219 170.285 437.321 179.446C444.186 185.693 451.102 191.848 458.564 197.262C466.588 203.106 475.225 208.11 485.02 211.505C493.112 214.333 501.271 215.65 509.466 216.279C528.103 217.708 546.927 215.364 565.512 219.366C573.195 221.032 580.214 223.945 586.807 227.619C596.96 233.275 606.108 240.753 615.153 248.411C615.585 248.77 616.083 249.04 616.619 249.206C617.155 249.371 617.718 249.43 618.277 249.377C618.835 249.325 619.378 249.162 619.873 248.899C620.369 248.636 620.808 248.278 621.165 247.845C621.521 247.412 621.789 246.913 621.952 246.376C622.116 245.84 622.171 245.276 622.116 244.718C622.061 244.159 621.896 243.618 621.631 243.123C621.366 242.629 621.005 242.192 620.571 241.837C610.912 234.106 601.133 226.611 590.384 220.994C583.059 217.174 575.325 214.2 566.875 212.599C547.898 208.974 528.817 211.759 509.84 210.715C502.089 210.289 494.355 209.197 486.655 206.679C477.285 203.587 468.989 198.959 461.272 193.485C453.896 188.255 447.047 182.288 440.301 176.16C430.046 166.85 420.029 157.188 408.633 149.333C394.68 139.592 378.872 133.589 362.433 130.669C346.027 127.754 328.975 127.936 312.485 130.785C305.21 132.021 297.613 133.597 290.509 136.232C285.535 138.076 280.816 140.459 276.574 143.564C275.676 144.249 275.086 145.262 274.935 146.382C274.784 147.501 275.083 148.635 275.768 149.533C276.452 150.432 277.466 151.021 278.585 151.173C279.705 151.324 280.838 151.024 281.737 150.339L281.736 150.34Z" fill="#FFF7ED"/>
<path fill-rule="evenodd" clip-rule="evenodd" d="M440.74 287.452C440.738 280.129 437.828 273.107 432.652 267.928C427.475 262.749 420.454 259.838 413.131 259.833H209.432C202.11 259.838 195.089 262.749 189.912 267.928C184.735 273.107 181.826 280.129 181.823 287.452V575.199C181.826 582.522 184.735 589.544 189.912 594.723C195.089 599.902 202.11 602.814 209.432 602.82H413.132C420.455 602.814 427.476 599.902 432.653 594.723C437.829 589.544 440.739 582.522 440.741 575.199L440.74 287.452Z" fill="white"/>
<mask id="mask0_291_788" style="mask-type:luminance" maskUnits="userSpaceOnUse" x="181" y="259" width="260" height="344">
<path d="M440.74 287.452C440.738 280.129 437.828 273.107 432.652 267.928C427.475 262.749 420.454 259.838 413.131 259.833H209.432C202.11 259.838 195.089 262.749 189.912 267.928C184.735 273.107 181.826 280.129 181.823 287.452V575.199C181.826 582.522 184.735 589.544 189.912 594.723C195.089 599.902 202.11 602.814 209.432 602.82H413.132C420.455 602.814 427.476 599.902 432.653 594.723C437.829 589.544 440.739 582.522 440.741 575.199L440.74 287.452Z" fill="white"/>
</mask>
<g mask="url(#mask0_291_788)">
<path fill-rule="evenodd" clip-rule="evenodd" d="M471.445 304.815V265.204C471.445 262.239 468.469 259.833 464.812 259.833H157.756C154.1 259.833 151.124 262.239 151.124 265.203V304.815C151.124 307.779 154.1 310.185 157.756 310.185H464.812C468.469 310.185 471.445 307.779 471.445 304.815Z" fill="#F9B662"/>
<path d="M210.574 291.831C214.342 291.831 217.396 288.776 217.396 285.008C217.396 281.241 214.342 278.186 210.574 278.186C206.806 278.186 203.752 281.241 203.752 285.008C203.752 288.776 206.806 291.831 210.574 291.831Z" fill="white"/>
<path d="M232.189 291.831C235.957 291.831 239.012 288.776 239.012 285.008C239.012 281.241 235.957 278.186 232.189 278.186C228.421 278.186 225.367 281.241 225.367 285.008C225.367 288.776 228.421 291.831 232.189 291.831Z" fill="white"/>
<path d="M254.459 291.831C258.226 291.831 261.281 288.776 261.281 285.008C261.281 281.241 258.226 278.186 254.459 278.186C250.691 278.186 247.636 281.241 247.636 285.008C247.636 288.776 250.691 291.831 254.459 291.831Z" fill="white"/>
</g>
<path d="M256.94 431.323C282.865 431.323 303.882 410.306 303.882 384.381C303.882 358.455 282.865 337.438 256.94 337.438C231.014 337.438 209.997 358.455 209.997 384.381C209.997 410.306 231.014 431.323 256.94 431.323Z" fill="#FEF2E3"/>
<mask id="mask1_291_788" style="mask-type:luminance" maskUnits="userSpaceOnUse" x="209" y="337" width="95" height="95">
<path d="M256.94 431.323C282.865 431.323 303.882 410.306 303.882 384.381C303.882 358.455 282.865 337.438 256.94 337.438C231.014 337.438 209.997 358.455 209.997 384.381C209.997 410.306 231.014 431.323 256.94 431.323Z" fill="white"/>
</mask>
<g mask="url(#mask1_291_788)">
<path fill-rule="evenodd" clip-rule="evenodd" d="M210.375 407.666C233.39 371.093 244.02 369.11 256.933 383.651C269.863 398.192 273.815 402.466 288.584 395.758C303.337 389.049 310.219 396.32 314.769 406.343C319.318 416.367 258.518 443.799 247.274 443.578C236.03 443.356 187.343 444.24 210.375 407.666Z" fill="url(#paint1_linear_291_788)"/>
</g>
<path d="M283.373 375.211C292.483 375.211 299.868 367.826 299.868 358.717C299.868 349.607 292.483 342.222 283.373 342.222C274.263 342.222 266.879 349.607 266.879 358.717C266.879 367.826 274.263 375.211 283.373 375.211Z" fill="url(#paint2_linear_291_788)"/>
<path fill-rule="evenodd" clip-rule="evenodd" d="M302.014 468.517C302.016 467.973 301.91 467.433 301.702 466.93C301.495 466.427 301.189 465.97 300.804 465.585C300.419 465.2 299.961 464.896 299.458 464.689C298.954 464.482 298.415 464.377 297.87 464.38H223.467C222.924 464.379 222.387 464.486 221.885 464.694C221.383 464.902 220.928 465.207 220.544 465.591C220.161 465.976 219.857 466.432 219.65 466.934C219.444 467.436 219.338 467.974 219.34 468.517V468.52C219.338 469.063 219.444 469.601 219.65 470.103C219.857 470.605 220.161 471.061 220.544 471.446C220.928 471.83 221.383 472.135 221.885 472.343C222.387 472.55 222.924 472.657 223.467 472.656H297.87C298.415 472.659 298.954 472.554 299.458 472.348C299.961 472.141 300.419 471.836 300.804 471.452C301.19 471.067 301.495 470.61 301.703 470.107C301.91 469.604 302.016 469.064 302.014 468.52V468.517Z" fill="#FEF2E3"/>
<path fill-rule="evenodd" clip-rule="evenodd" d="M428.457 392.155C428.455 388.849 427.139 385.678 424.8 383.341C422.461 381.004 419.289 379.691 415.983 379.692H329.898C328.262 379.692 326.642 380.015 325.13 380.641C323.619 381.268 322.245 382.186 321.089 383.343C319.933 384.501 319.016 385.875 318.39 387.387C317.765 388.899 317.444 390.519 317.446 392.155V392.159C317.444 393.795 317.766 395.415 318.391 396.927C319.016 398.438 319.933 399.812 321.089 400.969C322.246 402.127 323.619 403.044 325.13 403.671C326.642 404.297 328.262 404.619 329.898 404.619H415.983C419.289 404.62 422.461 403.308 424.8 400.972C427.139 398.635 428.454 395.465 428.457 392.159V392.155Z" fill="#FEF7EF"/>
<path fill-rule="evenodd" clip-rule="evenodd" d="M296.841 526.242C296.841 525.146 296.407 524.094 295.632 523.319C294.858 522.543 293.807 522.106 292.711 522.104H221.163C220.067 522.106 219.016 522.543 218.242 523.319C217.468 524.094 217.033 525.146 217.033 526.242V526.245C217.033 527.341 217.468 528.392 218.242 529.167C219.016 529.943 220.067 530.379 221.163 530.381H292.712C293.808 530.379 294.859 529.943 295.633 529.167C296.408 528.392 296.842 527.341 296.842 526.245L296.841 526.242ZM394.581 525.775C394.581 524.679 394.146 523.628 393.372 522.852C392.598 522.076 391.547 521.64 390.451 521.638H318.902C317.807 521.64 316.756 522.076 315.982 522.852C315.208 523.628 314.773 524.679 314.772 525.775V525.778C314.773 526.874 315.207 527.925 315.982 528.7C316.756 529.476 317.807 529.912 318.902 529.914H390.452C391.548 529.912 392.599 529.476 393.373 528.7C394.147 527.925 394.582 526.874 394.582 525.778L394.581 525.775ZM394.578 483.869C394.58 483.326 394.475 482.788 394.268 482.286C394.062 481.784 393.758 481.328 393.374 480.944C392.592 480.168 391.536 479.733 390.435 479.732H223.486C222.385 479.733 221.328 480.168 220.547 480.944C220.163 481.328 219.859 481.784 219.652 482.286C219.445 482.788 219.34 483.326 219.342 483.869V483.873C219.34 484.415 219.445 484.953 219.652 485.455C219.859 485.957 220.163 486.413 220.547 486.797C221.328 487.573 222.385 488.008 223.486 488.009H390.435C391.536 488.008 392.592 487.573 393.374 486.797C393.758 486.413 394.062 485.957 394.268 485.455C394.475 484.953 394.58 484.415 394.578 483.873V483.869ZM296.841 541.594C296.841 540.498 296.406 539.447 295.632 538.671C294.858 537.895 293.807 537.459 292.711 537.457H221.163C220.067 537.459 219.016 537.895 218.242 538.671C217.468 539.447 217.033 540.498 217.033 541.594V541.597C217.033 542.693 217.468 543.744 218.242 544.519C219.016 545.295 220.067 545.731 221.163 545.733H292.712C293.808 545.731 294.859 545.295 295.633 544.519C296.408 543.744 296.842 542.693 296.842 541.597L296.841 541.594ZM394.581 541.127C394.581 540.031 394.146 538.98 393.372 538.204C392.598 537.429 391.547 536.992 390.451 536.99H318.902C317.806 536.992 316.756 537.429 315.982 538.204C315.207 538.98 314.773 540.031 314.772 541.127V541.13C314.773 542.226 315.208 543.277 315.982 544.053C316.756 544.828 317.807 545.264 318.902 545.266H390.452C391.548 545.265 392.599 544.828 393.373 544.053C394.147 543.277 394.582 542.226 394.582 541.13L394.581 541.127ZM394.578 500.153C394.58 499.611 394.475 499.073 394.268 498.571C394.062 498.069 393.758 497.612 393.374 497.229C392.592 496.453 391.536 496.017 390.435 496.016H223.486C222.385 496.017 221.328 496.452 220.547 497.229C220.163 497.612 219.859 498.068 219.652 498.57C219.445 499.072 219.34 499.61 219.342 500.153V500.156C219.34 500.699 219.445 501.237 219.652 501.739C219.859 502.241 220.163 502.698 220.547 503.082C221.328 503.857 222.385 504.293 223.486 504.293H390.435C391.536 504.292 392.592 503.857 393.374 503.082C393.758 502.697 394.062 502.241 394.268 501.739C394.475 501.237 394.58 500.699 394.578 500.156V500.153ZM296.841 557.878C296.841 556.782 296.406 555.731 295.632 554.955C294.858 554.179 293.807 553.743 292.711 553.741H221.163C220.067 553.743 219.016 554.179 218.242 554.955C217.468 555.731 217.033 556.782 217.033 557.878V557.881C217.033 558.977 217.468 560.028 218.242 560.804C219.016 561.579 220.067 562.016 221.163 562.017H292.712C293.808 562.016 294.859 561.579 295.633 560.804C296.408 560.028 296.842 558.977 296.842 557.881L296.841 557.878ZM394.581 557.411C394.581 556.315 394.146 555.264 393.372 554.488C392.598 553.713 391.547 553.276 390.451 553.274H318.902C317.806 553.276 316.756 553.713 315.982 554.488C315.207 555.264 314.773 556.315 314.772 557.411V557.414C314.773 558.51 315.208 559.561 315.982 560.337C316.756 561.112 317.807 561.549 318.902 561.55H390.452C391.548 561.549 392.599 561.112 393.373 560.337C394.147 559.561 394.582 558.51 394.582 557.414L394.581 557.411Z" fill="#FEF2E3"/>
<path fill-rule="evenodd" clip-rule="evenodd" d="M602.266 308.409C618.618 308.409 630.54 323.466 628.214 343.904C626.562 358.387 608.884 373.466 591.392 380.693C576.284 386.936 576.202 364.093 576.202 343.523C576.202 322.953 585.925 308.409 602.266 308.409Z" fill="url(#paint3_linear_291_788)"/>
<path fill-rule="evenodd" clip-rule="evenodd" d="M589.794 417.109C605.516 453.536 500.17 570.244 465.052 567.248C429.926 564.238 379.052 399.078 379.052 399.078L364.251 379.693L403.295 384.635L400.577 389.935C400.577 389.935 455.64 485.792 470.605 492.969C478.045 496.542 497.443 437.866 538.617 414.535C583.515 389.117 580.802 396.273 589.794 417.109Z" fill="url(#paint4_linear_291_788)"/>
<mask id="mask2_291_788" style="mask-type:luminance" maskUnits="userSpaceOnUse" x="364" y="379" width="228" height="189">
<path d="M589.794 417.109C605.516 453.536 500.17 570.244 465.052 567.248C429.926 564.238 379.052 399.078 379.052 399.078L364.251 379.693L403.295 384.635L400.577 389.935C400.577 389.935 455.64 485.792 470.605 492.969C478.045 496.542 497.443 437.866 538.617 414.535C583.515 389.117 580.802 396.273 589.794 417.109Z" fill="white"/>
</mask>
<g mask="url(#mask2_291_788)">
<path fill-rule="evenodd" clip-rule="evenodd" d="M491.54 441.439C503.134 439.769 522.335 442.897 528.914 453.632C532.687 459.785 531.449 467.112 533.25 473.845C537.26 488.852 551.248 503.273 567.738 502.677C587.919 501.965 594.47 474.964 598.294 459.621C603.42 438.966 608.498 412.471 591.202 396.042C588.111 393.102 584.564 390.778 580.753 388.905C575.694 386.44 570.294 384.748 564.734 383.886C557.795 382.772 550.566 382.726 543.636 383.968C532.245 386.033 521.652 391.829 512.84 399.218C501.421 408.828 493.099 420.677 486.489 433.964L491.54 441.439Z" fill="url(#paint5_linear_291_788)"/>
</g>
<path fill-rule="evenodd" clip-rule="evenodd" d="M612.693 391.079C667.849 395.931 686.493 397.151 683.543 499.131C680.566 603.127 543.929 599.475 543.929 599.475C543.929 599.475 563.993 534.427 547.88 478.961C528.401 412.005 573.734 387.65 612.693 391.079Z" fill="url(#paint6_linear_291_788)"/>
<path fill-rule="evenodd" clip-rule="evenodd" d="M477.853 366.448C477.851 361.628 475.936 357.005 472.527 353.596C469.119 350.187 464.497 348.271 459.676 348.269H356.288C351.466 348.269 346.842 350.184 343.433 353.594C340.023 357.003 338.108 361.628 338.108 366.449C338.108 371.271 340.023 375.895 343.433 379.305C346.842 382.714 351.466 384.63 356.288 384.63H459.676C464.497 384.627 469.119 382.711 472.528 379.301C475.936 375.892 477.852 371.269 477.853 366.448Z" fill="#FFDAAB"/>
<path d="M365.107 358.518V361.198C364.461 361.073 363.806 361.006 363.148 360.998C361.411 360.998 360.133 361.369 359.315 362.111C358.498 362.854 358.021 364.104 357.918 365.867H358.055C358.753 364.656 359.928 364.05 361.581 364.05C362.995 364.05 364.119 364.494 364.954 365.384C365.789 366.273 366.198 367.49 366.198 369.034C366.198 370.728 365.721 372.065 364.767 373.046C363.812 374.029 362.501 374.52 360.848 374.52C359.763 374.545 358.695 374.245 357.782 373.658C356.884 373.051 356.195 372.183 355.806 371.172C355.363 370.089 355.141 368.782 355.141 367.252C355.141 364.334 355.789 362.125 357.118 360.627C358.446 359.13 360.405 358.379 363.012 358.379C363.713 358.371 364.413 358.418 365.107 358.518ZM363.267 369.116C363.267 368.293 363.063 367.66 362.654 367.218C362.228 366.775 361.632 366.554 360.848 366.554C360.144 366.531 359.457 366.774 358.923 367.235C358.683 367.42 358.488 367.658 358.352 367.929C358.217 368.2 358.144 368.499 358.14 368.802C358.111 369.602 358.371 370.385 358.872 371.008C359.101 371.271 359.381 371.484 359.694 371.637C360.007 371.789 360.348 371.877 360.696 371.896C361.044 371.914 361.392 371.863 361.719 371.744C362.047 371.626 362.347 371.443 362.603 371.206C363.046 370.744 363.267 370.048 363.267 369.116ZM380.951 366.031V366.111C383.455 366.423 384.716 367.676 384.716 369.872C384.716 371.318 384.188 372.453 383.098 373.279C382.024 374.105 380.474 374.52 378.464 374.52C376.743 374.52 375.244 374.236 373.967 373.669V370.874C375.31 371.531 376.782 371.881 378.277 371.9C379.418 371.9 380.27 371.721 380.832 371.363C381.109 371.189 381.334 370.944 381.484 370.653C381.634 370.363 381.703 370.037 381.684 369.711C381.684 368.879 381.36 368.293 380.73 367.953C380.099 367.612 379.094 367.44 377.698 367.44H376.367V364.983H377.628C378.854 364.983 379.774 364.824 380.404 364.506C381.035 364.187 381.358 363.625 381.358 362.817C381.369 362.565 381.323 362.313 381.222 362.081C381.122 361.85 380.97 361.643 380.779 361.478C380.404 361.16 379.808 361 379.007 361C378.417 361.002 377.832 361.094 377.27 361.274C376.633 361.49 376.026 361.785 375.464 362.153L373.982 359.906C375.535 358.916 377.336 358.387 379.178 358.38C380.779 358.38 382.04 358.716 382.96 359.388C383.4 359.694 383.757 360.105 383.998 360.584C384.239 361.063 384.356 361.595 384.339 362.131C384.358 363.04 384.043 363.924 383.454 364.616C382.875 365.295 382.023 365.766 380.951 366.031ZM400.285 366.007C401.444 366.611 402.278 367.259 402.807 367.945C403.424 368.758 403.693 369.782 403.556 370.793C403.418 371.804 402.885 372.719 402.074 373.337C401.052 374.126 399.723 374.519 398.105 374.519C396.367 374.519 395.004 374.146 394.033 373.402C393.079 372.656 392.585 371.623 392.585 370.303C392.572 369.44 392.835 368.596 393.335 367.893C393.812 367.203 394.579 366.608 395.6 366.111C393.914 365.063 393.062 363.751 393.062 362.175C393.05 361.633 393.173 361.096 393.419 360.613C393.666 360.13 394.029 359.716 394.476 359.408C395.413 358.722 396.623 358.378 398.105 358.378C399.587 358.378 400.796 358.718 401.716 359.398C402.163 359.713 402.524 360.134 402.768 360.623C403.011 361.111 403.13 361.653 403.113 362.199C403.113 363.829 402.159 365.099 400.285 366.007ZM398.105 364.727C398.906 364.393 399.451 364.045 399.757 363.684C400.058 363.337 400.222 362.891 400.217 362.432C400.226 362.2 400.178 361.969 400.077 361.76C399.976 361.551 399.825 361.37 399.638 361.233C399.177 360.918 398.627 360.762 398.07 360.79C397.532 360.767 397.001 360.918 396.554 361.221C396.365 361.358 396.212 361.541 396.111 361.753C396.01 361.964 395.963 362.198 395.975 362.432C395.97 362.893 396.141 363.339 396.452 363.679C396.928 364.133 397.49 364.489 398.105 364.726V364.727ZM397.918 367.37C396.282 368.06 395.464 368.976 395.464 370.118C395.451 370.399 395.507 370.679 395.625 370.934C395.744 371.19 395.922 371.412 396.146 371.584C396.589 371.941 397.236 372.121 398.054 372.121C398.906 372.121 399.553 371.947 400.013 371.603C400.238 371.434 400.417 371.212 400.536 370.957C400.655 370.702 400.709 370.422 400.694 370.141C400.683 369.64 400.482 369.161 400.132 368.802C399.74 368.381 399.11 367.958 398.241 367.531L397.918 367.37ZM422.415 374.286H411.461V371.968L415.532 367.94C417.048 366.434 418.002 365.389 418.377 364.807C418.742 364.274 418.943 363.647 418.956 363.001C418.97 362.74 418.928 362.48 418.83 362.238C418.733 361.996 418.584 361.778 418.394 361.599C417.991 361.245 417.465 361.062 416.929 361.091C416.309 361.092 415.695 361.217 415.123 361.458C414.395 361.788 413.713 362.213 413.096 362.722L411.41 360.615C412.032 360.13 412.686 359.688 413.369 359.293C413.89 359.006 414.445 358.785 415.021 358.635C415.67 358.46 416.341 358.373 417.014 358.378C418.496 358.378 419.688 358.782 420.591 359.589C421.031 359.972 421.382 360.447 421.617 360.98C421.853 361.514 421.968 362.093 421.954 362.676C421.955 363.426 421.804 364.169 421.511 364.86C421.176 365.622 420.722 366.325 420.165 366.944C419.297 367.923 418.376 368.854 417.406 369.731L415.566 371.443V371.571H422.414L422.415 374.286ZM431.103 374.38V371.69C431.745 371.837 432.403 371.907 433.062 371.899C434.816 371.899 436.111 371.517 436.946 370.753C437.78 369.989 438.223 368.715 438.291 366.939H438.155C437.746 367.645 437.269 368.136 436.69 368.412C436.026 368.707 435.304 368.848 434.578 368.825C433.147 368.825 432.022 368.377 431.222 367.481C430.404 366.583 429.995 365.331 429.995 363.725C429.995 362.071 430.472 360.768 431.443 359.812C432.397 358.858 433.709 358.379 435.327 358.379C437.099 358.379 438.496 359.008 439.518 360.267C440.557 361.524 441.068 363.314 441.068 365.636C441.068 368.531 440.404 370.736 439.092 372.25C437.78 373.765 435.821 374.522 433.215 374.522C432.508 374.531 431.802 374.483 431.103 374.38ZM432.925 363.678C432.925 365.439 433.726 366.321 435.31 366.321C436.026 366.344 436.725 366.1 437.269 365.635C437.509 365.45 437.703 365.214 437.839 364.943C437.975 364.673 438.048 364.376 438.054 364.074C438.07 363.292 437.811 362.529 437.322 361.919C437.095 361.65 436.816 361.431 436.502 361.273C436.188 361.116 435.846 361.024 435.495 361.003C435.144 360.983 434.793 361.034 434.463 361.154C434.132 361.273 433.83 361.459 433.574 361.699C433.147 362.164 432.925 362.823 432.925 363.678ZM454.339 374.519C452.533 374.519 451.17 373.84 450.25 372.482C449.331 371.124 448.871 369.124 448.87 366.484C448.87 363.751 449.33 361.717 450.233 360.382C451.136 359.046 452.516 358.379 454.339 358.379C457.984 358.379 459.824 361.074 459.824 366.462C459.824 369.264 459.364 371.307 458.478 372.593C457.575 373.877 456.196 374.519 454.339 374.519ZM454.339 371.899C455.224 371.899 455.855 371.474 456.23 370.623C456.622 369.773 456.809 368.387 456.809 366.462C456.809 364.504 456.622 363.106 456.23 362.262C455.855 361.421 455.225 360.999 454.339 360.998C454.063 360.984 453.786 361.031 453.53 361.136C453.274 361.241 453.044 361.401 452.857 361.605C452.499 362.009 452.243 362.606 452.09 363.399C451.931 364.419 451.857 365.451 451.869 366.484C451.869 368.393 452.073 369.773 452.447 370.623C452.839 371.473 453.47 371.899 454.339 371.899Z" fill="black"/>
<path fill-rule="evenodd" clip-rule="evenodd" d="M395.005 384.629C394.835 382.602 399.213 375.599 401.035 374.519C402.79 373.483 405.754 376.127 405.941 378.153C406.111 380.181 403.897 385.6 402.074 386.678C400.251 387.756 395.175 386.655 395.005 384.629Z" fill="#FBD09A"/>
<path fill-rule="evenodd" clip-rule="evenodd" d="M603.995 308.41C603.995 308.41 607.573 316.316 604.984 322.547C604.302 324.191 602.701 325.392 601.406 326.583C598.084 329.602 593.91 331.209 590.317 333.773C589.243 334.527 586.961 335.987 587.097 337.554C587.284 339.382 590.879 338.523 591.867 338.228C595.751 337.067 598.818 335.692 600.913 338.855C603.043 342.085 601.339 350.029 599.142 355.41C598.749 356.364 596.978 360.408 599.005 360.812C600.317 361.069 601.475 359.548 602.191 358.693C604.252 356.182 604.797 347.613 606.841 345.075C607.795 343.899 609.261 342.559 610.623 344.68C614.814 351.226 610.589 357.964 605.922 360.207C600.3 362.923 599.584 376.609 599.584 376.609C599.584 376.609 611.782 380.43 615.564 370.616C622.259 372.947 634.95 371.349 634.865 358.444C646.892 353.458 652.411 334.583 641.134 328.053C642.769 327.258 643.774 324.932 644.217 323.322C648.834 307.05 629.805 288.8 611.884 299.004C607.931 301.253 605.052 304.152 603.995 308.41Z" fill="url(#paint7_linear_291_788)"/>
<path d="M435.456 697.436C469.161 697.436 496.484 670.113 496.484 636.408C496.484 602.703 469.161 575.38 435.456 575.38C401.751 575.38 374.428 602.703 374.428 636.408C374.428 670.113 401.751 697.436 435.456 697.436Z" fill="url(#paint8_linear_291_788)"/>
<path fill-rule="evenodd" clip-rule="evenodd" d="M399.701 641.737L419.905 666.934C420.735 667.968 421.794 668.795 422.999 669.348C424.204 669.901 425.521 670.165 426.846 670.119C428.171 670.073 429.467 669.719 430.631 669.085C431.795 668.45 432.795 667.552 433.551 666.463L471.284 612.09C472.572 610.233 473.07 607.941 472.667 605.717C472.265 603.493 470.996 601.52 469.139 600.233C467.282 598.945 464.989 598.447 462.766 598.85C460.542 599.252 458.569 600.521 457.281 602.378L426.055 647.374L412.989 631.08C411.572 629.331 409.52 628.215 407.282 627.975C405.043 627.734 402.801 628.39 401.045 629.798C399.289 631.206 398.162 633.253 397.91 635.49C397.658 637.726 398.302 639.972 399.701 641.735V641.737Z" fill="white"/>
<path fill-rule="evenodd" clip-rule="evenodd" d="M656.693 402.72C696.216 406.189 753.863 545.375 729.554 583.81C705.228 622.245 551.789 626.214 510.802 633.33C479.662 660.532 466.936 626.693 471.399 626.649C491.228 626.45 490.7 610.545 490.7 610.545C490.7 610.545 491.024 608.881 485.419 602.115C491.603 597.764 505.419 610.326 505.419 610.326C505.419 610.326 653.405 553.398 666.829 543.639C673.507 538.789 631.821 493.825 630.118 446.532C629.539 430.321 634.087 400.735 656.693 402.72Z" fill="url(#paint9_linear_291_788)"/>
<mask id="mask3_291_788" style="mask-type:luminance" maskUnits="userSpaceOnUse" x="470" y="402" width="266" height="242">
<path d="M656.693 402.72C696.216 406.189 753.863 545.375 729.554 583.81C705.228 622.245 551.789 626.214 510.802 633.33C479.662 660.532 466.936 626.693 471.399 626.649C491.228 626.45 490.7 610.545 490.7 610.545C490.7 610.545 491.024 608.881 485.419 602.115C491.603 597.764 505.419 610.326 505.419 610.326C505.419 610.326 653.405 553.398 666.829 543.639C673.507 538.789 631.821 493.825 630.118 446.532C629.539 430.321 634.087 400.735 656.693 402.72Z" fill="white"/>
</mask>
<g mask="url(#mask3_291_788)">
<path fill-rule="evenodd" clip-rule="evenodd" d="M631.43 500.738C635.467 489.742 647.341 474.332 659.913 473.642C667.12 473.245 672.979 477.815 679.759 479.429C694.87 483.028 714.205 477.57 721.514 462.777C730.474 444.68 709.827 426.089 698.141 415.435C682.4 401.112 661.498 384.058 638.824 391.473C634.769 392.797 631.039 394.814 627.58 397.279C623.008 400.559 618.954 404.507 615.553 408.991C611.277 414.568 607.802 420.907 605.605 427.595C602.01 438.6 602.078 450.675 604.395 461.939C607.427 476.551 613.901 489.504 622.453 501.633L631.43 500.738Z" fill="url(#paint10_linear_291_788)"/>
</g>
<defs>
<linearGradient id="paint0_linear_291_788" x1="100.625" y1="311.649" x2="257.538" y2="579.883" gradientUnits="userSpaceOnUse">
<stop stop-color="#F9ECDB"/>
<stop offset="0.61" stop-color="#FAE1C1"/>
<stop offset="0.82" stop-color="#FBC785"/>
<stop offset="1" stop-color="#FDAC46"/>
</linearGradient>
<linearGradient id="paint1_linear_291_788" x1="273.634" y1="390.169" x2="241.068" y2="448.979" gradientUnits="userSpaceOnUse">
<stop stop-color="#FFD9AA"/>
<stop offset="1" stop-color="#E30007"/>
</linearGradient>
<linearGradient id="paint2_linear_291_788" x1="290.178" y1="343.976" x2="255.786" y2="411.861" gradientUnits="userSpaceOnUse">
<stop stop-color="#FFD9AA"/>
<stop offset="1" stop-color="#E30007"/>
</linearGradient>
<linearGradient id="paint3_linear_291_788" x1="580.845" y1="316.538" x2="625.518" y2="384.221" gradientUnits="userSpaceOnUse">
<stop stop-color="#FBD09A"/>
<stop offset="0.64" stop-color="#FC868A"/>
<stop offset="0.84" stop-color="#FD5056"/>
<stop offset="1" stop-color="#C1272C"/>
</linearGradient>
<linearGradient id="paint4_linear_291_788" x1="477.139" y1="416.983" x2="564.139" y2="565.64" gradientUnits="userSpaceOnUse">
<stop stop-color="#FBD09A"/>
<stop offset="0.63" stop-color="#FC8488"/>
<stop offset="0.83" stop-color="#FD4E54"/>
<stop offset="1" stop-color="#C1272C"/>
</linearGradient>
<linearGradient id="paint5_linear_291_788" x1="539.073" y1="415.538" x2="582.556" y2="494.856" gradientUnits="userSpaceOnUse">
<stop stop-color="#8C2024"/>
<stop offset="0.54" stop-color="#7F1A1D"/>
<stop offset="1" stop-color="#510507"/>
</linearGradient>
<linearGradient id="paint6_linear_291_788" x1="553.213" y1="425.723" x2="657.331" y2="574.457" gradientUnits="userSpaceOnUse">
<stop stop-color="#8C2024"/>
<stop offset="0.51" stop-color="#7E191C"/>
<stop offset="1" stop-color="#510507"/>
</linearGradient>
<linearGradient id="paint7_linear_291_788" x1="600.187" y1="372.107" x2="640.963" y2="294.771" gradientUnits="userSpaceOnUse">
<stop/>
<stop offset="1" stop-color="#4D4D4D"/>
</linearGradient>
<linearGradient id="paint8_linear_291_788" x1="460.001" y1="578.101" x2="400.529" y2="719.731" gradientUnits="userSpaceOnUse">
<stop stop-color="#FFD9AA"/>
<stop offset="0.6" stop-color="#FFCF92"/>
<stop offset="0.81" stop-color="#FFB65B"/>
<stop offset="1" stop-color="#FF9D22"/>
</linearGradient>
<linearGradient id="paint9_linear_291_788" x1="599.442" y1="563.235" x2="616.678" y2="677.809" gradientUnits="userSpaceOnUse">
<stop stop-color="#FBD09A"/>
<stop offset="0.47" stop-color="#FC7579"/>
<stop offset="1" stop-color="#C1272C"/>
</linearGradient>
<linearGradient id="paint10_linear_291_788" x1="677.306" y1="401.495" x2="642.732" y2="513.423" gradientUnits="userSpaceOnUse">
<stop stop-color="#8C2024"/>
<stop offset="0.49" stop-color="#7D191C"/>
<stop offset="1" stop-color="#510507"/>
</linearGradient>
</defs>
</svg>
