<svg width="36" height="36" viewBox="0 0 36 36" fill="none" xmlns="http://www.w3.org/2000/svg">
<path d="M27.3419 17.6932C26.9642 17.7158 26.5948 17.8234 26.2666 18.0137L26.2609 18.0151L24.0905 19.2769C23.4124 19.6728 22.9414 20.4064 22.8729 21.1881C22.8043 21.9698 23.1373 22.7791 23.7359 23.2859L23.884 23.4141L23.4696 23.9025C23.4681 23.904 23.4682 23.9068 23.4667 23.9082L18.8226 29.3827L17.1734 31.3238C16.9175 31.6264 16.8215 32.054 16.9199 32.4375C17.0184 32.821 17.3114 33.1513 17.6818 33.292L18.9109 33.7634L18.9095 33.7648C19.3871 33.9478 19.9762 33.7988 20.308 33.4102L20.3906 33.3119C20.497 33.1865 20.5612 33.0053 20.5415 32.842L20.4518 31.7482C20.4453 31.6702 20.5084 31.5924 20.5871 31.5858L21.6353 31.5032C21.7162 31.4989 21.7907 31.457 21.8432 31.3964C21.8972 31.333 21.9232 31.2503 21.913 31.1671L21.8261 30.1247C21.8196 30.0466 21.8827 29.9731 21.9614 29.9666L22.9711 29.884C23.1877 29.8723 23.4115 29.7497 23.5522 29.5849L26.3193 26.3279L26.738 25.8323L26.8876 25.9604C27.4855 26.4687 28.3359 26.6629 29.0964 26.4674C29.8569 26.272 30.5062 25.69 30.7855 24.9564L31.6798 22.6108L31.677 22.6051C32.0357 21.6623 31.7484 20.5056 30.9806 19.8508C30.9791 19.8494 30.9778 19.8494 30.9763 19.848L30.7798 19.6813L29.3001 18.4238L29.1021 18.2558L29.0993 18.2529C28.6158 17.846 27.9704 17.6546 27.3419 17.6932ZM27.4914 20.1898H27.4928C27.5154 20.1883 27.5387 20.1966 27.5569 20.2111L27.6879 20.3194L29.1676 21.5783L29.2987 21.688C29.3293 21.7135 29.341 21.7562 29.3271 21.7934L29.1448 22.2719L28.5182 23.9154C28.5007 23.9635 28.4467 23.9891 28.3986 23.9709C28.3877 23.9665 28.3774 23.9604 28.3687 23.9538L27.6623 23.3542L26.1826 22.0967L25.4734 21.4971C25.4333 21.4643 25.4277 21.4048 25.462 21.3647C25.4693 21.3559 25.4774 21.3492 25.4876 21.3433L27.0072 20.4575L27.4501 20.2012C27.4632 20.1946 27.4768 20.1905 27.4914 20.1898Z" fill="#FF9955"/>
<path d="M13.868 1.76402C13.157 1.72902 12.421 1.84024 11.7545 2.14285C11.4111 2.29816 11.1075 2.51951 10.8245 2.76378C10.495 2.81263 10.1714 2.89552 9.87463 3.04718C9.21254 3.38479 8.70389 3.9566 8.40348 4.62087C8.05493 5.39379 8.00509 6.21583 7.98905 6.97927C7.97665 7.55969 7.98992 8.14198 8.01326 8.72386C7.98263 8.74355 7.9528 8.7617 7.91926 8.78795C7.80114 8.88274 7.59236 9.05253 7.4735 9.33909C7.36559 9.59868 7.37871 9.83829 7.38236 9.9586C7.39111 10.2422 7.41555 10.5259 7.45784 10.8102C7.54534 11.3965 7.7129 12.0548 8.16279 12.6089C8.30061 12.7788 8.46446 12.9066 8.62707 13.0262C8.77582 13.5505 8.96555 14.0819 9.2893 14.5814C9.91201 15.541 10.8622 16.2394 11.9268 16.5923C12.4504 16.7658 13.0012 16.8579 13.5561 16.86H13.5575H13.5618H13.5632C14.1188 16.8579 14.6689 16.7658 15.1924 16.5923C16.257 16.2394 17.2087 15.541 17.8314 14.5814C18.1318 14.1191 18.3171 13.6279 18.4651 13.1416C18.6992 12.9957 18.928 12.8328 19.1103 12.6089C19.5602 12.0548 19.7299 11.3965 19.8166 10.8102C19.8589 10.5259 19.8819 10.2422 19.8907 9.9586C19.8943 9.83829 19.9075 9.59868 19.7996 9.33909C19.68 9.05253 19.4733 8.88274 19.3552 8.78795C19.3487 8.78284 19.3411 8.77811 19.3353 8.77228C19.352 8.65124 19.3734 8.53089 19.3865 8.40912C19.4624 7.71568 19.488 7.00599 19.3823 6.2914C19.2765 5.57536 19.0388 4.86118 18.6232 4.2392C17.9684 3.25993 16.9501 2.62222 15.9045 2.22117C15.2606 1.97472 14.5774 1.80187 13.868 1.76687V1.76402ZM11.239 5.23611C11.7297 5.7509 12.306 6.18339 12.9579 6.47797C13.8089 6.86224 14.7583 7.02752 15.6894 6.94367C16.1984 6.89773 16.6694 6.78458 17.1193 6.70583C17.2717 6.67885 17.367 6.68281 17.3999 6.69302C17.4232 6.70104 17.4715 6.7302 17.5124 6.78416C17.5561 6.84177 17.6018 6.92617 17.6462 7.03481C17.857 7.54742 17.9548 8.11023 17.9766 8.67971H17.988C17.988 8.69502 17.9873 8.71139 17.9866 8.72671C17.9808 8.98337 18.1153 9.22215 18.3369 9.35049C18.4667 9.42559 18.5907 9.51215 18.703 9.60256C18.8043 9.6835 18.823 9.70647 18.8368 9.73928C18.8499 9.76918 18.8519 9.79029 18.8482 9.923C18.8409 10.1716 18.8184 10.4158 18.7827 10.655C18.7083 11.1559 18.5712 11.6163 18.2985 11.9524C18.1862 12.091 18.0287 12.2163 17.8413 12.3213C17.6802 12.4117 17.5606 12.5628 17.5095 12.74C17.3768 13.1986 17.207 13.6267 16.9569 14.0117C16.472 14.7584 15.715 15.3211 14.8663 15.6025C14.4463 15.7418 14.0044 15.814 13.5618 15.8161H13.5561C13.1142 15.814 12.673 15.7418 12.253 15.6025C11.4042 15.3211 10.6486 14.7591 10.1637 14.0117C9.8954 13.599 9.71827 13.1376 9.5841 12.6403C9.54108 12.4791 9.44205 12.3377 9.30496 12.2429C9.16278 12.1445 9.05116 12.0479 8.97314 11.9524C8.70043 11.6163 8.5633 11.1559 8.48892 10.655C8.45392 10.4158 8.43286 10.1716 8.42484 9.923C8.42119 9.79029 8.42383 9.7699 8.43623 9.73928C8.45008 9.7072 8.47017 9.68423 8.57153 9.60256C8.62257 9.56173 8.70568 9.50524 8.81506 9.43451C9.02068 9.30107 9.14063 9.06997 9.13407 8.82497C9.12604 8.55081 9.12423 8.28439 9.1184 8.01605C9.06298 7.23803 9.45064 6.38081 9.98001 5.90831C10.3322 5.58456 10.773 5.35059 11.239 5.23611Z" fill="#6F918A"/>
<path d="M27.4786 3.81628C24.2192 3.81628 21.5769 6.45718 21.5769 9.71655C21.5776 12.9759 24.22 15.619 27.4786 15.6182C30.7372 15.6182 33.3796 12.9752 33.3803 9.71655C33.3803 6.45791 30.7387 3.81701 27.4786 3.81628ZM30.4836 6.65889C30.8088 6.65087 30.9567 7.06291 30.7015 7.26416C29.8039 7.97291 29.0198 8.82251 28.4 9.78064C27.9246 10.5156 27.5363 11.3092 27.2607 12.1405C27.147 12.5182 26.7993 12.7756 26.4048 12.7756C26.3895 12.7756 26.3731 12.7721 26.3578 12.7714C26.317 12.7699 26.2783 12.7673 26.2382 12.76C26.2294 12.7585 26.2199 12.755 26.2111 12.7528C25.9508 12.7018 25.72 12.5412 25.5887 12.3042L24.2258 10.1167C24.1587 10.0015 24.1247 9.8692 24.1247 9.73649C24.1247 9.32597 24.454 8.9911 24.8653 8.98454H24.8781C25.11 8.98454 25.3312 9.09131 25.4734 9.27506L26.1897 10.2122C26.4121 9.81695 26.6624 9.43867 26.9417 9.08138C27.5629 8.28732 28.3289 7.58563 29.2389 7.11605C29.6107 6.92428 30.0035 6.77532 30.4052 6.66886C30.4308 6.66303 30.4566 6.65889 30.4836 6.65889Z" fill="#6F918A"/>
<path d="M9.24913 16.9111C8.42882 16.9622 7.61872 17.019 6.83924 17.0963C5.07757 17.2465 3.57695 18.438 3.02424 20.1173C3.00018 20.1902 2.97757 20.2624 2.95716 20.3368C2.77851 20.9019 2.62903 21.4808 2.50434 22.0685C2.42486 22.4426 2.35486 22.8188 2.29361 23.1965C2.23382 23.4868 2.21924 23.7864 2.21924 24.0825C2.21924 26.1883 3.7082 28.0149 5.77393 28.4232C8.03872 28.9745 10.8285 29.2975 13.6336 29.2975H13.6365H13.6394C15.0949 29.2975 16.5401 29.2093 17.9146 29.0481L18.1297 28.7944L22.7139 23.3825C22.2174 22.7233 21.8973 21.9453 21.9702 21.1082C22.0584 20.1071 22.5929 19.2087 23.4088 18.6414C22.6687 17.7723 21.6129 17.197 20.4324 17.0963C19.6536 17.0198 18.8442 16.9622 18.0239 16.9111C17.7483 17.5265 17.4326 18.1259 17.068 18.6939C16.6341 19.3721 16.1368 20.0115 15.5943 20.6036C15.3442 20.8763 15.0803 21.1352 14.8112 21.3868L14.3883 19.1847L14.871 18.6232C15.1218 18.3315 15.0883 17.8919 14.7966 17.6403C14.6705 17.5324 14.5093 17.4726 14.3424 17.4726H12.9292C12.5442 17.4726 12.2322 17.7847 12.2329 18.1689C12.2329 18.3359 12.2927 18.4963 12.4006 18.6232L12.8848 19.1847L12.4604 21.3868C12.1906 21.1345 11.9274 20.8763 11.6773 20.6036C11.134 20.0108 10.6389 19.3721 10.2043 18.6939C9.84049 18.1259 9.52476 17.5265 9.24913 16.9111Z" fill="#6F918A"/>
</svg>
