<svg width="20" height="21" viewBox="0 0 20 21" fill="none" xmlns="http://www.w3.org/2000/svg">
<path d="M19.662 16.8253L15.625 12.6948C14.829 11.8803 13.5187 11.88 12.7223 12.6943C11.9508 13.4831 11.9508 14.7439 12.7223 15.5328L16.8262 19.7287C17.2769 20.1895 18.0188 20.1895 18.4695 19.7287L19.662 18.5094C20.1127 18.0446 20.1127 17.282 19.662 16.8253Z" fill="#B7B7B7"/>
<path d="M10.6978 12.0843C11.1149 12.5108 11.8013 12.5108 12.2184 12.0843C12.6227 11.6709 12.6227 11.0103 12.2184 10.597L12.0225 10.3967C11.5735 9.93757 11.5258 9.23074 11.7844 8.64287C12.7647 6.41399 12.3625 3.70187 10.5727 1.87188C8.26341 -0.489194 4.51034 -0.489194 2.19708 1.87188C-0.116188 4.23295 -0.1122 8.0702 2.19708 10.4354C3.98391 12.2623 6.63063 12.6751 8.80853 11.6793C9.38646 11.415 10.0902 11.4631 10.5346 11.9174L10.6978 12.0843ZM3.34573 9.24462C1.67061 7.53193 1.67061 4.75491 3.34573 3.0463C5.02085 1.3336 7.73694 1.3336 9.40808 3.0463C11.0832 4.75899 11.0832 7.536 9.40808 9.24462C7.73694 10.9573 5.02085 10.9573 3.34573 9.24462Z" fill="#B7B7B7"/>
</svg>
